<svg width="40" height="40" viewBox="0 0 40 40" fill="none" xmlns="http://www.w3.org/2000/svg">
<path d="M26.5835 36.5833C26.3891 36.5833 26.2016 36.5485 26.021 36.4791C25.8404 36.4096 25.6807 36.2916 25.5418 36.1249L20.5418 31.1249C20.2363 30.8471 20.0904 30.493 20.1043 30.0624C20.1182 29.6319 20.2779 29.2638 20.5835 28.9583C20.8613 28.6805 21.2154 28.5416 21.646 28.5416C22.0766 28.5416 22.4446 28.6805 22.7502 28.9583L26.5835 32.8749L35.7918 23.6666C36.0696 23.3888 36.4238 23.2499 36.8543 23.2499C37.2849 23.2499 37.6529 23.3888 37.9585 23.6666C38.2363 23.9721 38.3752 24.3402 38.3752 24.7708C38.3752 25.2013 38.2363 25.5555 37.9585 25.8333L27.6668 36.1249C27.5002 36.2916 27.3266 36.4096 27.146 36.4791C26.9654 36.5485 26.7779 36.5833 26.5835 36.5833ZM5.62516 9.12492L19.8335 18.0833L34.0418 9.12492H5.62516ZM5.62516 33.4999C4.81961 33.4999 4.11127 33.1944 3.50016 32.5833C2.88905 31.9721 2.5835 31.2638 2.5835 30.4583V9.12492C2.5835 8.31936 2.88905 7.61103 3.50016 6.99992C4.11127 6.38881 4.81961 6.08325 5.62516 6.08325H34.0835C34.8891 6.08325 35.5974 6.38881 36.2085 6.99992C36.8196 7.61103 37.1252 8.31936 37.1252 9.12492V18.6666C36.5418 19.2777 36.0418 19.7916 35.6252 20.2083C35.2085 20.6249 34.6946 21.1249 34.0835 21.7083V12.0416L20.6252 20.5416C20.4863 20.6249 20.3543 20.6805 20.2293 20.7083C20.1043 20.736 19.9724 20.7499 19.8335 20.7499C19.6946 20.7499 19.5627 20.736 19.4377 20.7083C19.3127 20.6805 19.1807 20.6249 19.0418 20.5416L5.62516 12.0416V30.4583H16.2502L19.2918 33.4999H5.62516Z" fill="#EAB90D"/>
</svg>
