<svg width="20" height="20" viewBox="0 0 20 20" fill="none" xmlns="http://www.w3.org/2000/svg">
<path d="M2.72915 16.9793C2.32637 16.9793 1.9722 16.8266 1.66665 16.521C1.36109 16.2154 1.20831 15.8613 1.20831 15.4585V4.54183C1.20831 4.13905 1.36109 3.78489 1.66665 3.47933C1.9722 3.17377 2.32637 3.021 2.72915 3.021H13.6458C14.0486 3.021 14.4028 3.17377 14.7083 3.47933C15.0139 3.78489 15.1666 4.13905 15.1666 4.54183V8.87516L18.1458 5.896C18.2569 5.78488 18.3923 5.76058 18.5521 5.82308C18.7118 5.88558 18.7916 5.99322 18.7916 6.146V13.8543C18.7916 14.0071 18.7118 14.1147 18.5521 14.1772C18.3923 14.2397 18.2569 14.2154 18.1458 14.1043L15.1666 11.1252V15.4585C15.1666 15.8613 15.0139 16.2154 14.7083 16.521C14.4028 16.8266 14.0486 16.9793 13.6458 16.9793H2.72915ZM2.72915 15.4585H13.6458V4.54183H2.72915V15.4585ZM2.72915 15.4585V4.54183V15.4585Z" fill="#9297A0"/>
</svg>
