<svg width="20" height="20" viewBox="0 0 20 20" fill="none" xmlns="http://www.w3.org/2000/svg">
<path d="M4.60415 16.2502H7.47915V10.896H12.5416V16.2502H15.3958V8.146L9.99998 4.10433L4.60415 8.146V16.2502ZM4.60415 17.771C4.17359 17.771 3.81248 17.6252 3.52081 17.3335C3.22915 17.0418 3.08331 16.6807 3.08331 16.2502V8.146C3.08331 7.90988 3.1354 7.68419 3.23956 7.46891C3.34373 7.25363 3.49304 7.07655 3.68748 6.93766L9.08331 2.87516C9.2222 2.77794 9.37151 2.70502 9.53123 2.65641C9.69095 2.6078 9.8472 2.5835 9.99998 2.5835C10.1666 2.5835 10.3264 2.6078 10.4791 2.65641C10.6319 2.70502 10.7778 2.77794 10.9166 2.87516L16.3125 6.93766C16.5069 7.07655 16.6562 7.25363 16.7604 7.46891C16.8646 7.68419 16.9166 7.90988 16.9166 8.146V16.2502C16.9166 16.6807 16.7708 17.0418 16.4791 17.3335C16.1875 17.6252 15.8264 17.771 15.3958 17.771H11.0208V12.4168H8.99998V17.771H4.60415Z" fill="#9297A0"/>
</svg>
