<svg width="20" height="20" viewBox="0 0 20 20" fill="none" xmlns="http://www.w3.org/2000/svg">
<path d="M4.49998 14.6043C5.38887 13.9793 6.27776 13.5036 7.16665 13.1772C8.05554 12.8509 8.99998 12.6877 9.99998 12.6877C11 12.6877 11.9444 12.8509 12.8333 13.1772C13.7222 13.5036 14.625 13.9793 15.5416 14.6043C16.1389 13.8266 16.5555 13.0696 16.7916 12.3335C17.0278 11.5974 17.1458 10.8196 17.1458 10.0002C17.1458 7.97238 16.4618 6.27447 15.0937 4.90641C13.7257 3.53836 12.0278 2.85433 9.99998 2.85433C7.9722 2.85433 6.27428 3.53836 4.90623 4.90641C3.53817 6.27447 2.85415 7.97238 2.85415 10.0002C2.85415 10.8196 2.97567 11.5974 3.21873 12.3335C3.46179 13.0696 3.88887 13.8266 4.49998 14.6043ZM9.99998 10.8752C9.12498 10.8752 8.38887 10.5766 7.79165 9.97933C7.19442 9.38211 6.89581 8.646 6.89581 7.771C6.89581 6.896 7.19442 6.15988 7.79165 5.56266C8.38887 4.96544 9.12498 4.66683 9.99998 4.66683C10.875 4.66683 11.6111 4.96544 12.2083 5.56266C12.8055 6.15988 13.1041 6.896 13.1041 7.771C13.1041 8.646 12.8055 9.38211 12.2083 9.97933C11.6111 10.5766 10.875 10.8752 9.99998 10.8752ZM9.99998 18.6668C8.81942 18.6668 7.70484 18.4377 6.65623 17.9793C5.60762 17.521 4.68748 16.896 3.89581 16.1043C3.10415 15.3127 2.47915 14.3925 2.02081 13.3439C1.56248 12.2953 1.33331 11.1738 1.33331 9.97933C1.33331 8.81266 1.56248 7.70502 2.02081 6.65641C2.47915 5.6078 3.10415 4.68766 3.89581 3.896C4.68748 3.10433 5.60762 2.47933 6.65623 2.021C7.70484 1.56266 8.82637 1.3335 10.0208 1.3335C11.1875 1.3335 12.2951 1.56266 13.3437 2.021C14.3923 2.47933 15.3125 3.10433 16.1041 3.896C16.8958 4.68766 17.5208 5.6078 17.9791 6.65641C18.4375 7.70502 18.6666 8.81961 18.6666 10.0002C18.6666 11.1807 18.4375 12.2953 17.9791 13.3439C17.5208 14.3925 16.8958 15.3127 16.1041 16.1043C15.3125 16.896 14.3923 17.521 13.3437 17.9793C12.2951 18.4377 11.1805 18.6668 9.99998 18.6668ZM9.99998 17.146C10.7361 17.146 11.4618 17.0418 12.1771 16.8335C12.8923 16.6252 13.6111 16.2432 14.3333 15.6877C13.6111 15.2016 12.8854 14.8335 12.1562 14.5835C11.4271 14.3335 10.7083 14.2085 9.99998 14.2085C9.29165 14.2085 8.5729 14.3335 7.84373 14.5835C7.11456 14.8335 6.39581 15.2016 5.68748 15.6877C6.39581 16.2432 7.10762 16.6252 7.8229 16.8335C8.53817 17.0418 9.26387 17.146 9.99998 17.146ZM9.99998 9.35433C10.4583 9.35433 10.8368 9.20502 11.1354 8.90641C11.434 8.6078 11.5833 8.22933 11.5833 7.771C11.5833 7.31266 11.434 6.93419 11.1354 6.63558C10.8368 6.33697 10.4583 6.18766 9.99998 6.18766C9.54165 6.18766 9.16317 6.33697 8.86456 6.63558C8.56595 6.93419 8.41665 7.31266 8.41665 7.771C8.41665 8.22933 8.56595 8.6078 8.86456 8.90641C9.16317 9.20502 9.54165 9.35433 9.99998 9.35433Z" fill="#9297A0"/>
</svg>
