<svg width="20" height="20" viewBox="0 0 20 20" fill="none" xmlns="http://www.w3.org/2000/svg">
<path d="M9.81252 3.875C10.0625 3.875 10.2778 3.78472 10.4584 3.60417C10.6389 3.42361 10.7292 3.20139 10.7292 2.9375C10.7292 2.6875 10.6389 2.47222 10.4584 2.29167C10.2778 2.11111 10.0625 2.02083 9.81252 2.02083C9.54863 2.02083 9.32641 2.11111 9.14585 2.29167C8.9653 2.47222 8.87502 2.6875 8.87502 2.9375C8.87502 3.20139 8.9653 3.42361 9.14585 3.60417C9.32641 3.78472 9.54863 3.875 9.81252 3.875ZM8.95835 17.5625H3.54169C3.18058 17.5625 2.86113 17.4236 2.58335 17.1458C2.30558 16.8681 2.16669 16.5486 2.16669 16.1875V3.64583C2.16669 3.28472 2.30558 2.96528 2.58335 2.6875C2.86113 2.40972 3.18058 2.27083 3.54169 2.27083H7.35419C7.50697 1.78472 7.81252 1.36806 8.27085 1.02083C8.72919 0.673611 9.24308 0.5 9.81252 0.5C10.382 0.5 10.8993 0.673611 11.3646 1.02083C11.8299 1.36806 12.132 1.78472 12.2709 2.27083H16.0834C16.4445 2.27083 16.7639 2.40972 17.0417 2.6875C17.3195 2.96528 17.4584 3.28472 17.4584 3.64583V8.0625H15.9375V3.79167H13.9584V5.20833C13.9584 5.63889 13.8125 6 13.5209 6.29167C13.2292 6.58333 12.8681 6.72917 12.4375 6.72917H7.18752C6.75697 6.72917 6.39585 6.58333 6.10419 6.29167C5.81252 6 5.66669 5.63889 5.66669 5.20833V3.79167H3.68752V16.0417H8.95835V17.5625ZM12.9375 14.7708L17.4375 10.2708C17.5764 10.1319 17.75 10.066 17.9584 10.0729C18.1667 10.0799 18.3472 10.1528 18.5 10.2917C18.6389 10.4444 18.7084 10.6285 18.7084 10.8437C18.7084 11.059 18.6389 11.2361 18.5 11.375L13.4792 16.3958C13.3264 16.5486 13.1459 16.625 12.9375 16.625C12.7292 16.625 12.5556 16.5486 12.4167 16.3958L9.93752 13.9167C9.78474 13.7778 9.71183 13.6007 9.71877 13.3854C9.72572 13.1701 9.80558 12.9861 9.95835 12.8333C10.0972 12.6944 10.2743 12.625 10.4896 12.625C10.7049 12.625 10.8889 12.6944 11.0417 12.8333L12.9375 14.7708Z" fill="#9297A0"/>
</svg>
