<svg width="549" height="191" viewBox="0 0 549 191" fill="none" xmlns="http://www.w3.org/2000/svg">
<path d="M538.1 131.996C542.682 127.671 545.952 122.131 547.533 116.016C549.235 109.929 549.037 103.464 546.964 97.4945C544.514 90.5516 539.541 84.7979 533.046 81.3893C527.457 78.6316 521.314 77.1991 515.088 77.2019C504.834 77.3969 494.753 79.8913 485.58 84.503C481.544 86.4703 477.731 88.8702 474.207 91.6609C470.363 94.703 469.366 99.3377 468.868 104.187C468.032 113.993 468.565 115.711 466.572 126.681C464.637 134.411 461.811 141.888 458.154 148.96C455.378 153.72 453.9 158.337 457.05 162.864C461.015 168.547 465.979 173.453 471.698 177.341C477.312 181.077 483.432 183.982 489.869 185.966C502.968 190.225 519.555 189.903 530.892 181.152C534.327 178.504 536.997 175.981 538.189 171.597C539.296 167.435 538.721 163.003 536.588 159.267C534.486 155.671 531.079 153.034 527.084 151.912C523.222 151.036 518.185 150.982 514.821 153.523C513.701 154.38 512.51 155.141 511.262 155.796C510.301 156.1 509.322 156.35 508.325 156.565C506.885 156.655 505.441 156.655 504 156.565C501.113 155.989 498.279 155.169 495.529 154.113C492.698 152.806 489.989 151.249 487.431 149.461C486.694 148.872 486.009 148.219 485.384 147.51C484.777 146.909 484.228 146.249 483.747 145.542C482.784 144.101 482.08 142.502 481.664 140.818L481.504 140.102C481.452 139.896 481.452 139.681 481.504 139.476C481.647 139.171 482.27 139.476 482.465 139.476C482.946 139.655 483.426 139.798 483.925 139.959C486.043 140.603 488.196 141.176 490.35 141.659C493.389 142.332 496.469 142.81 499.569 143.09C502.645 143.385 505.737 143.457 508.823 143.305C511.865 143.151 514.889 142.744 517.865 142.088C520.818 141.443 523.702 140.515 526.479 139.315C529.27 138.098 531.925 136.586 534.399 134.805C535.681 133.935 536.917 132.997 538.1 131.996ZM488.072 115.622C487.022 111.56 494.763 106.102 505.371 103.436C515.978 100.769 520.926 102.791 521.976 106.853C523.026 110.916 519.805 115.497 509.197 118.163C498.59 120.829 489.122 119.63 488.072 115.622Z" fill="white"/>
<path d="M244.78 136.828C244.78 136.828 260.103 115.354 266.243 105.065C272.771 94.3824 277.937 82.9174 281.62 70.9394C283.011 66.0567 284.022 61.073 284.646 56.0331C285.749 47.8015 286.675 40.4825 283.329 33.5036C281.668 30.5513 279.364 28.0149 276.59 26.0843C273.817 24.1537 270.644 22.8789 267.311 22.3552C254.123 21.192 245.527 32.6804 239.298 41.7352C236.16 46.2482 233.364 50.9917 230.933 55.9257C225.165 67.9218 220.742 80.5256 217.745 93.5046C215.873 101.342 214.635 109.32 214.043 117.358C213.689 122.485 211.761 127.374 208.526 131.352L206.55 133.768C203.276 137.705 199.936 141.594 196.53 145.435C193.754 148.549 191.013 151.806 187.916 154.651C187.193 155.233 186.419 155.748 185.603 156.19C184.883 156.61 184.126 156.964 183.342 157.246C181.757 157.849 180.088 158.199 178.395 158.284C176.148 158.406 173.902 158.04 171.81 157.21C171.185 156.898 170.544 156.623 169.887 156.387C169.27 156.266 168.632 156.311 168.038 156.519C167.444 156.726 166.916 157.088 166.506 157.568C161.896 163.115 157.927 168.591 153.371 174.335C152.732 175.117 152.273 176.031 152.026 177.012C151.779 177.993 151.751 179.016 151.943 180.01C152.135 181.003 152.543 181.941 153.138 182.757C153.732 183.574 154.499 184.248 155.382 184.732C157.942 186.039 160.595 187.151 163.32 188.06C169.473 190.194 176.035 190.861 182.488 190.011C189.783 189.138 196.806 186.697 203.08 182.853C208.662 179.032 213.677 174.435 217.976 169.199L221.34 165.37C229.676 156.302 237.501 146.774 244.78 136.828ZM246.399 67.0383C250.226 58.091 254.604 53.2773 258.199 54.2436C261.794 55.2099 260.726 60.9004 256.882 69.812C253.038 78.7236 247.592 85.3088 244.691 84.5394C241.79 83.7699 242.484 75.932 246.328 67.0204L246.399 67.0383Z" fill="white"/>
<path d="M318.122 136.81C318.122 136.81 333.446 115.336 339.586 105.064C346.107 94.3787 351.273 82.9146 354.963 70.9392C356.353 66.0565 357.365 61.0728 357.989 56.0329C359.074 47.8013 360.017 40.4824 356.672 33.5035C355.008 30.5511 352.704 28.0139 349.931 26.0806C347.158 24.1474 343.987 22.8678 340.654 22.3371C327.484 21.1919 318.87 32.6803 312.658 41.735C309.521 46.2481 306.725 50.9916 304.293 55.9256C298.527 67.9241 294.098 80.527 291.088 93.5045C289.222 101.343 287.99 109.32 287.403 117.358C287.046 122.484 285.119 127.372 281.886 131.352L279.893 133.768C276.618 137.704 273.284 141.594 269.891 145.435C267.114 148.549 264.356 151.806 261.277 154.651C260.55 155.237 259.769 155.753 258.945 156.19C258.233 156.613 257.482 156.967 256.703 157.246C255.117 157.847 253.448 158.197 251.755 158.283C249.508 158.42 247.259 158.078 245.152 157.281C244.534 156.956 243.892 156.68 243.23 156.458C242.613 156.337 241.975 156.383 241.381 156.59C240.787 156.798 240.258 157.16 239.848 157.639C235.257 163.169 231.288 168.662 226.732 174.407C226.093 175.188 225.633 176.102 225.387 177.083C225.14 178.064 225.111 179.088 225.303 180.081C225.496 181.074 225.903 182.012 226.498 182.829C227.093 183.645 227.859 184.319 228.743 184.803C231.303 186.11 233.956 187.223 236.68 188.132C242.845 190.244 249.413 190.887 255.866 190.011C263.161 189.138 270.184 186.697 276.458 182.853C282.034 179.031 287.044 174.434 291.337 169.199C292.476 167.929 293.597 166.64 294.718 165.37C303.042 156.295 310.856 146.76 318.122 136.81ZM319.742 67.0203C323.568 58.0729 327.946 53.2592 331.541 54.2077C335.136 55.1561 334.051 60.8824 330.224 69.794C326.398 78.7056 320.934 85.2908 318.033 84.5213C315.132 83.7519 315.969 75.914 319.742 67.0203Z" fill="white"/>
<path d="M223.279 13.3176C228.369 19.706 224.026 31.6955 213.579 40.1597C203.132 48.6239 190.567 50.2344 185.477 43.846C180.387 37.4576 184.729 25.486 195.159 17.0039C205.588 8.52178 218.189 6.89335 223.279 13.3176Z" fill="white"/>
<path d="M351.137 160.878C350.006 156.874 347.395 153.455 343.84 151.322C341.64 150.114 339.217 149.371 336.721 149.139C334.231 149.001 331.746 149.493 329.495 150.571C328.425 150.986 327.404 151.521 326.452 152.164C323.438 154.396 320.199 156.304 316.788 157.854C315.33 158.306 313.764 158.255 312.338 157.711C311.739 157.536 311.102 157.543 310.507 157.731C309.911 157.919 309.385 158.279 308.992 158.767C307.373 160.95 292.974 178.021 290.803 180.24C289.86 181.26 291.657 183.443 292.583 184.088C296.239 186.745 300.463 188.504 304.917 189.223C306.987 189.647 309.078 189.964 311.181 190.172C319.153 190.609 327.121 189.265 334.514 186.235C340.645 183.329 345.874 178.801 349.642 173.136C351.831 170.058 352.133 164.475 351.137 160.878Z" fill="white"/>
<path d="M108.432 135.18C114.154 126.894 119.275 118.205 123.756 109.179C129.7 97.1898 134.434 84.8603 131.747 71.2603C130.234 63.7445 125.091 55.7813 118.096 52.3992C113.041 49.8036 107.214 49.1667 101.722 50.6098C97.3478 52.0793 93.3323 54.464 89.9404 57.6066C81.7714 64.2277 76.6101 73.855 73.0862 83.6255C70.5947 90.7488 68.8471 98.1134 67.8715 105.6C66.7146 113.903 65.3086 122.26 64.8993 130.653C64.7569 133.552 64.7925 136.415 64.8993 139.296C60.7297 144.009 56.2078 148.394 51.3731 152.413C49.4459 153.804 47.4104 155.037 45.2864 156.099C44.0376 156.528 42.7661 156.886 41.4777 157.173C40.6768 157.173 39.8759 157.173 39.0572 157.173C38.5767 157.066 38.0784 156.922 37.5978 156.779C37.1173 156.636 36.8325 156.332 36.4588 156.099C35.8893 155.562 35.3375 155.008 34.8214 154.435C34.2146 153.508 33.662 152.546 33.1662 151.554C32.6595 150.073 32.2493 148.561 31.9382 147.027C31.6444 143.133 31.7159 139.221 32.1518 135.341C34.0765 123.546 37.343 112.011 41.8871 100.966C46.8 89.6527 52.9737 78.9368 60.2897 69.0235C63.0483 65.4445 65.9137 62.0982 68.9571 58.8235C69.4248 58.311 69.8645 57.7734 70.2741 57.2129L48.1162 34.7192C47.5175 35.1655 46.9578 35.6624 46.4432 36.2045C30.456 53.5816 17.9693 73.9089 9.67348 96.0624C6.72305 103.989 4.4021 112.139 2.73243 120.435C0.276372 132.192 -1.04065 144.163 1.46881 156.046C3.88928 167.552 11.5244 179.309 22.0962 184.677C35.2664 191.495 50.3587 189.956 63.0305 182.888C68.202 179.866 73.1668 176.501 77.8915 172.813C82.5337 168.911 86.8548 164.638 90.8125 160.036C95.1729 154.739 105.602 139.314 108.432 135.18ZM87.8047 123.96C83.8003 122.743 84.3698 109.984 89.0862 95.4719C93.8025 80.9592 97.9849 79.3666 101.9 80.5298C105.816 81.6929 108.272 85.415 103.556 99.9277C98.8392 114.44 91.8092 125.195 87.8047 123.96Z" fill="white"/>
<path d="M170.136 65.2838C159.084 91.428 146.608 117.179 129.593 140.03C125.956 144.769 121.834 149.112 117.295 152.986C117.046 153.183 116.761 153.344 116.512 153.523L115.711 154.042C115.177 154.382 114.626 154.704 114.074 155.026L113.486 155.348C113.297 155.466 113.101 155.573 112.899 155.67C112.492 155.862 112.07 156.018 111.636 156.135C110.948 156.337 110.246 156.487 109.535 156.583C108.78 156.62 108.022 156.578 107.275 156.457C104.855 156.261 103.609 154.435 101.01 158.104C97.8958 162.524 90.0827 172.42 88.0716 175.014C85.2239 178.593 87.3241 182.745 91.026 185.644C92.8057 187.057 103.484 189.026 109.5 188.686C115.668 188.361 121.713 186.829 127.297 184.176C132.385 181.645 137.084 178.39 141.251 174.513C148.921 167.785 155.062 159.321 160.828 151.017C172.796 133.558 183.065 114.981 191.493 95.5438C193.415 91.2669 195.266 86.9543 197.099 82.6417L171.809 62.6711C171.107 63.4392 170.541 64.323 170.136 65.2838Z" fill="white"/>
<path d="M75.7021 45.1705C75.6663 40.9351 73.9942 36.8796 71.0392 33.861C68.0498 30.8704 64.0081 29.1858 59.7911 29.1726C56.3439 29.2505 53.0003 30.3732 50.1982 32.3937L72.374 54.8694C74.4915 52.0803 75.6586 48.6792 75.7021 45.1705Z" fill="black"/>
<path d="M200.747 73.1038C201.232 70.9939 201.133 68.791 200.463 66.7333C199.911 64.7044 198.966 62.805 197.683 61.144C196.399 59.4831 194.802 58.0932 192.984 57.0541C191.165 56.015 189.16 55.3472 187.084 55.0889C185.008 54.8307 182.901 54.987 180.885 55.5491C177.926 56.4451 175.239 58.0759 173.072 60.2912L198.345 80.2617C198.523 79.868 198.701 79.4564 198.861 79.0627C200.012 77.2837 200.664 75.2248 200.747 73.1038Z" fill="black"/>
<path d="M440.107 75.4485C435.083 72.261 429.298 70.4931 423.359 70.3306L424 68.4338C426.67 60.578 429.339 52.758 432.525 45.1706C435.141 39.1043 437.989 33.1096 441.104 27.2759C441.393 26.7352 441.655 26.1797 441.887 25.6117L417.646 6.35693C415.984 7.60086 414.611 9.19482 413.624 11.0275C402.074 32.698 394.438 56.0685 386.839 79.3496C379.417 102.04 372.601 125.053 368.276 148.602C367.03 155.42 366.336 162.005 367.956 168.841C369.012 173.213 371.17 177.238 374.222 180.529C377.273 183.82 381.116 186.265 385.379 187.631C393.638 190.315 402.109 188.042 409.709 184.606C413.993 182.523 418.044 179.985 421.793 177.037C431.367 170.024 439.71 161.454 446.478 151.68C453.651 141.142 458.043 128.944 459.239 116.231C460.061 108.324 458.712 100.342 455.339 93.1526C451.966 85.9628 446.698 79.8397 440.107 75.4485ZM399.618 157.21V157.102V157.21ZM427.471 119.094C426.168 125.615 423.558 131.801 419.8 137.275C414.55 144.594 406.47 150.213 401.291 153.38C400.798 153.676 400.21 153.766 399.653 153.631H399.546C399.245 153.543 398.964 153.395 398.721 153.196C398.478 152.997 398.277 152.75 398.131 152.471C397.985 152.192 397.896 151.887 397.87 151.572C397.844 151.258 397.882 150.942 397.98 150.642L413.571 99.5348C413.757 98.9041 414.182 98.3722 414.755 98.0542C415.328 97.7361 416.002 97.6573 416.632 97.8348C425.78 100.609 429.873 104.384 427.471 119.094Z" fill="white"/>
<path d="M444.609 12.5295C443.466 8.52625 440.851 5.11011 437.295 2.97369C434.52 1.48127 431.389 0.789956 428.248 0.976298C425.106 1.16264 422.078 2.21937 419.497 4.02948L443.737 23.1948C445.196 19.8351 445.502 16.0835 444.609 12.5295Z" fill="black"/>
</svg>
