<svg width="656" height="289" viewBox="0 0 656 289" fill="none" xmlns="http://www.w3.org/2000/svg">
<path d="M594.1 176.996C598.682 172.671 601.952 167.131 603.533 161.016C605.235 154.929 605.037 148.464 602.964 142.495C600.514 135.552 595.541 129.798 589.046 126.389C583.457 123.632 577.314 122.199 571.088 122.202C560.834 122.397 550.753 124.891 541.58 129.503C537.544 131.47 533.731 133.87 530.207 136.661C526.363 139.703 525.366 144.338 524.868 149.187C524.032 158.993 524.565 160.711 522.572 171.681C520.637 179.411 517.811 186.888 514.154 193.96C511.378 198.72 509.9 203.337 513.05 207.864C517.015 213.547 521.979 218.453 527.698 222.341C533.312 226.077 539.432 228.982 545.869 230.966C558.968 235.225 575.555 234.903 586.892 226.152C590.327 223.504 592.997 220.981 594.189 216.597C595.296 212.435 594.721 208.003 592.588 204.267C590.486 200.671 587.079 198.034 583.084 196.912C579.222 196.036 574.185 195.982 570.821 198.523C569.701 199.38 568.51 200.141 567.262 200.796C566.301 201.1 565.322 201.35 564.325 201.565C562.885 201.655 561.441 201.655 560 201.565C557.113 200.989 554.279 200.169 551.529 199.113C548.698 197.806 545.989 196.249 543.431 194.461C542.694 193.872 542.009 193.219 541.384 192.51C540.777 191.909 540.228 191.249 539.747 190.542C538.784 189.101 538.08 187.502 537.664 185.818L537.504 185.102C537.452 184.896 537.452 184.681 537.504 184.476C537.647 184.171 538.27 184.476 538.465 184.476C538.946 184.655 539.426 184.798 539.925 184.959C542.043 185.603 544.196 186.176 546.35 186.659C549.389 187.332 552.469 187.81 555.569 188.09C558.645 188.385 561.737 188.457 564.823 188.305C567.865 188.151 570.889 187.744 573.865 187.088C576.818 186.443 579.702 185.515 582.479 184.315C585.27 183.098 587.925 181.586 590.399 179.805C591.681 178.935 592.917 177.997 594.1 176.996ZM544.072 160.622C543.022 156.56 550.763 151.102 561.371 148.436C571.978 145.769 576.926 147.791 577.976 151.853C579.026 155.916 575.805 160.497 565.197 163.163C554.59 165.829 545.122 164.63 544.072 160.622Z" fill="white"/>
<path d="M300.78 181.828C300.78 181.828 316.103 160.354 322.243 150.065C328.771 139.382 333.937 127.917 337.62 115.939C339.011 111.057 340.022 106.073 340.646 101.033C341.749 92.8015 342.675 85.4825 339.329 78.5036C337.668 75.5513 335.364 73.0149 332.59 71.0843C329.817 69.1537 326.644 67.8789 323.311 67.3552C310.123 66.192 301.527 77.6804 295.298 86.7352C292.16 91.2482 289.364 95.9917 286.933 100.926C281.165 112.922 276.742 125.526 273.745 138.505C271.873 146.342 270.635 154.32 270.043 162.358C269.689 167.485 267.761 172.374 264.526 176.352L262.55 178.768C259.276 182.705 255.936 186.594 252.53 190.435C249.754 193.549 247.013 196.806 243.916 199.651C243.193 200.233 242.419 200.748 241.603 201.19C240.883 201.61 240.126 201.964 239.342 202.246C237.757 202.849 236.088 203.199 234.395 203.284C232.148 203.406 229.902 203.04 227.81 202.21C227.185 201.898 226.544 201.623 225.887 201.387C225.27 201.266 224.632 201.311 224.038 201.519C223.444 201.726 222.916 202.088 222.506 202.568C217.896 208.115 213.927 213.591 209.371 219.335C208.732 220.117 208.273 221.031 208.026 222.012C207.779 222.993 207.751 224.016 207.943 225.01C208.135 226.003 208.543 226.941 209.138 227.757C209.732 228.574 210.499 229.248 211.382 229.732C213.942 231.039 216.595 232.151 219.32 233.06C225.473 235.194 232.035 235.861 238.488 235.011C245.783 234.138 252.806 231.697 259.08 227.853C264.662 224.032 269.677 219.435 273.976 214.199L277.34 210.37C285.676 201.302 293.501 191.774 300.78 181.828ZM302.399 112.038C306.226 103.091 310.604 98.2773 314.199 99.2436C317.794 100.21 316.726 105.9 312.882 114.812C309.038 123.724 303.592 130.309 300.691 129.539C297.79 128.77 298.484 120.932 302.328 112.02L302.399 112.038Z" fill="white"/>
<path d="M374.122 181.81C374.122 181.81 389.446 160.336 395.586 150.064C402.107 139.379 407.273 127.915 410.963 115.939C412.353 111.057 413.365 106.073 413.989 101.033C415.074 92.8013 416.017 85.4824 412.672 78.5035C411.008 75.5511 408.704 73.0139 405.931 71.0806C403.158 69.1474 399.987 67.8678 396.654 67.3371C383.484 66.1919 374.87 77.6803 368.658 86.735C365.521 91.2481 362.725 95.9916 360.293 100.926C354.527 112.924 350.098 125.527 347.088 138.505C345.222 146.343 343.99 154.32 343.403 162.358C343.046 167.484 341.119 172.372 337.886 176.352L335.893 178.768C332.618 182.704 329.284 186.594 325.891 190.435C323.114 193.549 320.356 196.806 317.277 199.651C316.55 200.237 315.769 200.753 314.945 201.19C314.233 201.613 313.482 201.967 312.703 202.246C311.117 202.847 309.448 203.197 307.755 203.283C305.508 203.42 303.259 203.078 301.152 202.281C300.534 201.956 299.892 201.68 299.23 201.458C298.613 201.337 297.975 201.383 297.381 201.59C296.787 201.798 296.258 202.16 295.848 202.639C291.257 208.169 287.288 213.662 282.732 219.407C282.093 220.188 281.633 221.102 281.387 222.083C281.14 223.064 281.111 224.088 281.303 225.081C281.496 226.074 281.903 227.012 282.498 227.829C283.093 228.645 283.859 229.319 284.743 229.803C287.303 231.11 289.956 232.223 292.68 233.132C298.845 235.244 305.413 235.887 311.866 235.011C319.161 234.138 326.184 231.697 332.458 227.853C338.034 224.031 343.044 219.434 347.337 214.199C348.476 212.929 349.597 211.64 350.718 210.37C359.042 201.295 366.856 191.76 374.122 181.81ZM375.742 112.02C379.568 103.073 383.946 98.2592 387.541 99.2077C391.136 100.156 390.051 105.882 386.224 114.794C382.398 123.706 376.934 130.291 374.033 129.521C371.132 128.752 371.969 120.914 375.742 112.02Z" fill="white"/>
<path d="M279.279 58.3176C284.369 64.706 280.026 76.6955 269.579 85.1597C259.132 93.6239 246.567 95.2344 241.477 88.846C236.387 82.4576 240.729 70.486 251.159 62.0039C261.588 53.5218 274.189 51.8934 279.279 58.3176Z" fill="white"/>
<path d="M407.137 205.878C406.006 201.874 403.395 198.455 399.84 196.322C397.64 195.114 395.217 194.371 392.721 194.139C390.231 194.001 387.746 194.493 385.495 195.571C384.425 195.986 383.404 196.521 382.452 197.164C379.438 199.396 376.199 201.304 372.788 202.854C371.33 203.306 369.764 203.255 368.338 202.711C367.739 202.536 367.102 202.543 366.507 202.731C365.911 202.919 365.385 203.279 364.992 203.767C363.373 205.95 348.974 223.021 346.803 225.24C345.86 226.26 347.657 228.443 348.583 229.088C352.239 231.745 356.463 233.504 360.917 234.223C362.987 234.647 365.078 234.964 367.181 235.172C375.153 235.609 383.121 234.265 390.514 231.235C396.645 228.329 401.874 223.801 405.642 218.136C407.831 215.058 408.133 209.475 407.137 205.878Z" fill="white"/>
<path d="M164.432 180.18C170.154 171.894 175.275 163.205 179.756 154.179C185.7 142.19 190.434 129.86 187.747 116.26C186.234 108.745 181.091 100.781 174.096 97.3992C169.041 94.8036 163.214 94.1667 157.722 95.6098C153.348 97.0793 149.332 99.464 145.94 102.607C137.771 109.228 132.61 118.855 129.086 128.626C126.595 135.749 124.847 143.113 123.871 150.6C122.715 158.903 121.309 167.26 120.899 175.653C120.757 178.552 120.792 181.415 120.899 184.296C116.73 189.009 112.208 193.394 107.373 197.413C105.446 198.804 103.41 200.037 101.286 201.099C100.038 201.528 98.7661 201.886 97.4777 202.173C96.6768 202.173 95.8759 202.173 95.0572 202.173C94.5767 202.066 94.0784 201.922 93.5978 201.779C93.1173 201.636 92.8325 201.332 92.4588 201.099C91.8893 200.562 91.3375 200.008 90.8214 199.435C90.2146 198.508 89.662 197.546 89.1662 196.554C88.6595 195.073 88.2493 193.561 87.9382 192.027C87.6444 188.133 87.7159 184.221 88.1518 180.341C90.0765 168.546 93.343 157.011 97.8871 145.966C102.8 134.653 108.974 123.937 116.29 114.023C119.048 110.445 121.914 107.098 124.957 103.823C125.425 103.311 125.864 102.773 126.274 102.213L104.116 79.7192C103.517 80.1655 102.958 80.6624 102.443 81.2045C86.456 98.5816 73.9693 118.909 65.6735 141.062C62.7231 148.989 60.4021 157.139 58.7324 165.435C56.2764 177.192 54.9594 189.163 57.4688 201.046C59.8893 212.552 67.5244 224.309 78.0962 229.677C91.2664 236.495 106.359 234.956 119.031 227.888C124.202 224.866 129.167 221.501 133.892 217.813C138.534 213.911 142.855 209.638 146.813 205.036C151.173 199.739 161.602 184.314 164.432 180.18ZM143.805 168.96C139.8 167.743 140.37 154.984 145.086 140.472C149.802 125.959 153.985 124.367 157.9 125.53C161.816 126.693 164.272 130.415 159.556 144.928C154.839 159.44 147.809 170.195 143.805 168.96Z" fill="white"/>
<path d="M226.136 110.284C215.084 136.428 202.608 162.179 185.593 185.03C181.956 189.769 177.834 194.112 173.295 197.986C173.046 198.183 172.761 198.344 172.512 198.523L171.711 199.042C171.177 199.382 170.626 199.704 170.074 200.026L169.486 200.348C169.297 200.466 169.101 200.573 168.899 200.67C168.492 200.862 168.07 201.018 167.636 201.135C166.948 201.337 166.246 201.487 165.535 201.583C164.78 201.62 164.022 201.578 163.275 201.457C160.855 201.261 159.609 199.435 157.01 203.104C153.896 207.524 146.083 217.42 144.072 220.014C141.224 223.593 143.324 227.745 147.026 230.644C148.806 232.057 159.484 234.026 165.5 233.686C171.668 233.361 177.713 231.829 183.297 229.176C188.385 226.645 193.084 223.39 197.251 219.513C204.921 212.785 211.062 204.321 216.828 196.017C228.796 178.558 239.065 159.981 247.493 140.544C249.415 136.267 251.266 131.954 253.099 127.642L227.809 107.671C227.107 108.439 226.541 109.323 226.136 110.284Z" fill="white"/>
<path d="M131.702 90.1705C131.666 85.9351 129.994 81.8796 127.039 78.861C124.05 75.8704 120.008 74.1858 115.791 74.1726C112.344 74.2505 109 75.3732 106.198 77.3937L128.374 99.8694C130.492 97.0803 131.659 93.6792 131.702 90.1705Z" fill="black"/>
<path d="M256.747 118.104C257.232 115.994 257.133 113.791 256.463 111.733C255.911 109.704 254.966 107.805 253.683 106.144C252.399 104.483 250.802 103.093 248.984 102.054C247.165 101.015 245.16 100.347 243.084 100.089C241.008 99.8307 238.901 99.987 236.885 100.549C233.926 101.445 231.239 103.076 229.072 105.291L254.345 125.262C254.523 124.868 254.701 124.456 254.861 124.063C256.012 122.284 256.664 120.225 256.747 118.104Z" fill="black"/>
<path d="M496.107 120.449C491.083 117.261 485.298 115.493 479.359 115.331L480 113.434C482.67 105.578 485.339 97.758 488.525 90.1706C491.141 84.1043 493.989 78.1096 497.104 72.2759C497.393 71.7352 497.655 71.1797 497.887 70.6117L473.646 51.3569C471.984 52.6009 470.611 54.1948 469.624 56.0275C458.074 77.698 450.438 101.069 442.839 124.35C435.417 147.04 428.601 170.053 424.276 193.602C423.03 200.42 422.336 207.005 423.956 213.841C425.012 218.213 427.17 222.238 430.222 225.529C433.273 228.82 437.116 231.265 441.379 232.631C449.638 235.315 458.109 233.042 465.709 229.606C469.993 227.523 474.044 224.985 477.793 222.037C487.367 215.024 495.71 206.454 502.478 196.68C509.651 186.142 514.043 173.944 515.239 161.231C516.061 153.324 514.712 145.342 511.339 138.153C507.966 130.963 502.698 124.84 496.107 120.449ZM455.618 202.21V202.102V202.21ZM483.471 164.094C482.168 170.615 479.558 176.801 475.8 182.275C470.55 189.594 462.47 195.213 457.291 198.38C456.798 198.676 456.21 198.766 455.653 198.631H455.546C455.245 198.543 454.964 198.395 454.721 198.196C454.478 197.997 454.277 197.75 454.131 197.471C453.985 197.192 453.896 196.887 453.87 196.572C453.844 196.258 453.882 195.942 453.98 195.642L469.571 144.535C469.757 143.904 470.182 143.372 470.755 143.054C471.328 142.736 472.002 142.657 472.632 142.835C481.78 145.609 485.873 149.384 483.471 164.094Z" fill="white"/>
<path d="M500.609 57.5295C499.466 53.5262 496.851 50.1101 493.295 47.9737C490.52 46.4813 487.389 45.79 484.248 45.9763C481.106 46.1626 478.078 47.2194 475.497 49.0295L499.737 68.1948C501.196 64.8351 501.502 61.0835 500.609 57.5295Z" fill="black"/>
</svg>
