<svg width="700" height="525" viewBox="0 0 700 525" fill="none" xmlns="http://www.w3.org/2000/svg">
<rect width="700" height="525" fill="#F4F6F9"/>
<path d="M337.9 234.325C338.833 234.325 339.621 234.004 340.263 233.363C340.904 232.721 341.225 231.933 341.225 231C341.225 230.067 340.904 229.279 340.263 228.638C339.621 227.996 338.833 227.675 337.9 227.675C336.967 227.675 336.179 227.996 335.538 228.638C334.896 229.279 334.575 230.067 334.575 231C334.575 231.933 334.896 232.721 335.538 233.363C336.179 234.004 336.967 234.325 337.9 234.325ZM350.5 234.325C351.433 234.325 352.221 234.004 352.863 233.363C353.504 232.721 353.825 231.933 353.825 231C353.825 230.067 353.504 229.279 352.863 228.638C352.221 227.996 351.433 227.675 350.5 227.675C349.567 227.675 348.779 227.996 348.138 228.638C347.496 229.279 347.175 230.067 347.175 231C347.175 231.933 347.496 232.721 348.138 233.363C348.779 234.004 349.567 234.325 350.5 234.325ZM363.042 234.325C363.975 234.325 364.763 234.004 365.404 233.363C366.046 232.721 366.367 231.933 366.367 231C366.367 230.067 366.046 229.279 365.404 228.638C364.763 227.996 363.975 227.675 363.042 227.675C362.108 227.675 361.321 227.996 360.679 228.638C360.038 229.279 359.717 230.067 359.717 231C359.717 231.933 360.038 232.721 360.679 233.363C361.321 234.004 362.108 234.325 363.042 234.325ZM350.5 255.267C347.195 255.267 344.064 254.625 341.108 253.342C338.153 252.058 335.576 250.318 333.379 248.121C331.182 245.924 329.442 243.347 328.158 240.392C326.875 237.436 326.233 234.306 326.233 231C326.233 227.695 326.875 224.564 328.158 221.608C329.442 218.653 331.182 216.076 333.379 213.879C335.576 211.682 338.153 209.942 341.108 208.658C344.064 207.375 347.195 206.733 350.5 206.733C353.806 206.733 356.936 207.375 359.892 208.658C362.847 209.942 365.424 211.682 367.621 213.879C369.818 216.076 371.558 218.653 372.842 221.608C374.125 224.564 374.767 227.695 374.767 231C374.767 234.306 374.125 237.436 372.842 240.392C371.558 243.347 369.818 245.924 367.621 248.121C365.424 250.318 362.847 252.058 359.892 253.342C356.936 254.625 353.806 255.267 350.5 255.267ZM350.5 251.008C355.983 251.008 360.689 249.054 364.617 245.146C368.545 241.238 370.508 236.522 370.508 231C370.508 225.517 368.545 220.811 364.617 216.883C360.689 212.956 355.983 210.992 350.5 210.992C344.978 210.992 340.263 212.956 336.354 216.883C332.446 220.811 330.492 225.517 330.492 231C330.492 236.522 332.446 241.238 336.354 245.146C340.263 249.054 344.978 251.008 350.5 251.008Z" fill="#C2C7D0"/>
<path d="M282.492 277.328H281.008V291.359H282.492V277.328ZM271.68 288H278.398V278.5H276.93V282.094H273.164V278.5H271.68V288ZM273.164 286.781V283.266H276.93V286.781H273.164ZM296.32 277.328H294.836V291.359H296.32V277.328ZM285.617 287.922H286.773C289.68 287.914 291.508 287.836 293.602 287.453L293.445 286.219C291.469 286.57 289.766 286.648 287.117 286.656V279.859H292.32V278.625H285.617V287.922ZM304.93 278.172C301.953 278.18 299.766 279.656 299.773 281.891C299.766 283.984 301.602 285.383 304.195 285.594V288.344H298.555V289.578H311.367V288.344H305.664V285.594C308.273 285.383 310.102 283.984 310.102 281.891C310.102 279.656 307.922 278.18 304.93 278.172ZM301.211 281.891C301.211 280.375 302.773 279.375 304.93 279.391C307.102 279.375 308.656 280.375 308.664 281.891C308.656 283.461 307.102 284.438 304.93 284.453C302.773 284.438 301.211 283.461 301.211 281.891ZM323.289 277.328H321.805V291.312H323.289V284.141H325.461V282.906H323.289V277.328ZM312.398 287.578L313.227 288.734C317.836 286.461 319.617 282.844 319.633 278.797H313.102V280.031H318.117C317.812 283.297 315.906 285.828 312.398 287.578ZM341.727 277.344H340.242V287.516H341.727V277.344ZM330.398 281.75C330.406 283.805 332.016 285.234 334.133 285.234C336.242 285.234 337.852 283.805 337.852 281.75C337.852 279.727 336.242 278.289 334.133 278.281C332.016 278.289 330.406 279.727 330.398 281.75ZM331.852 281.75C331.844 280.461 332.828 279.578 334.133 279.578C335.414 279.578 336.398 280.461 336.398 281.75C336.398 283.07 335.414 283.938 334.133 283.938C332.828 283.938 331.844 283.07 331.852 281.75ZM332.57 291.031H342.148V289.828H334.07V286.484H332.57V291.031ZM355.242 278.625H345.461V279.844H353.789V279.938C353.789 280.57 353.781 281.242 353.75 282L345.039 282.344L345.258 283.625L353.68 283.133C353.594 284.078 353.453 285.133 353.195 286.328L354.648 286.484C355.25 283.578 355.234 281.641 355.242 279.938V278.625ZM343.945 289.516H356.711V288.281H350.273V284.734H348.805V288.281H343.945V289.516ZM369.383 277.328H367.898V285.859H369.383V277.328ZM358.617 284.656H359.789C362.93 284.648 364.695 284.578 366.727 284.188L366.586 282.969C364.656 283.344 362.977 283.445 360.086 283.453V279.609H365.273V278.406H358.617V284.656ZM359.914 288.625C359.914 290.32 361.719 291.32 364.68 291.328C367.602 291.32 369.422 290.32 369.43 288.625C369.422 286.914 367.602 285.914 364.68 285.922C361.719 285.914 359.914 286.914 359.914 288.625ZM361.414 288.625C361.414 287.633 362.609 287.094 364.68 287.094C366.734 287.094 367.969 287.633 367.961 288.625C367.969 289.586 366.734 290.141 364.68 290.141C362.609 290.141 361.414 289.586 361.414 288.625ZM384.367 283.812H371.602V285.016H377.242V286.359C374.641 286.492 373.117 287.359 373.117 288.828C373.117 290.414 374.93 291.305 377.977 291.297C380.984 291.305 382.797 290.414 382.805 288.828C382.797 287.359 381.273 286.5 378.711 286.359V285.016H384.367V283.812ZM372.273 281.906L372.789 283.078C375.219 282.797 377.211 281.773 377.984 280.289C378.742 281.773 380.75 282.797 383.18 283.078L383.711 281.906C381.148 281.648 379.18 280.516 378.977 279.156H383.227V277.969H372.773V279.156H376.977C376.773 280.508 374.789 281.648 372.273 281.906ZM374.617 288.828C374.609 287.961 375.836 287.492 377.977 287.484C380.086 287.492 381.32 287.961 381.32 288.828C381.32 289.68 380.086 290.172 377.977 290.156C375.836 290.172 374.609 289.68 374.617 288.828ZM397.039 277.328H395.555V284.844H397.039V277.328ZM385.711 281.219C385.719 283.133 387.297 284.469 389.445 284.453C391.586 284.469 393.164 283.133 393.164 281.219C393.164 279.297 391.586 277.961 389.445 277.969C387.297 277.961 385.719 279.297 385.711 281.219ZM387.164 281.219C387.156 280.023 388.117 279.211 389.445 279.219C390.758 279.211 391.711 280.023 391.711 281.219C391.711 282.43 390.758 283.234 389.445 283.234C388.117 283.234 387.156 282.43 387.164 281.219ZM387.883 291.156H397.039V285.516H395.57V287.094H389.336V285.516H387.883V291.156ZM389.336 289.938V288.266H395.57V289.938H389.336ZM410.883 277.328H409.398V291.328H410.883V277.328ZM400.117 287.766H401.289C403.5 287.773 405.75 287.602 408.227 287.094L408.023 285.844C405.781 286.297 403.633 286.477 401.586 286.484V278.688H400.117V287.766ZM423.992 277.328H422.508V291.359H423.992V283.969H426.242V282.75H423.992V277.328ZM413.68 287.875H414.805C417.406 287.883 419.266 287.812 421.461 287.422L421.273 286.172C419.273 286.531 417.516 286.633 415.164 286.641V279.875H420.227V278.672H413.68V287.875ZM428.508 290.109C429.109 290.102 429.609 289.609 429.617 289C429.609 288.391 429.109 287.891 428.508 287.891C427.898 287.891 427.391 288.391 427.398 289C427.391 289.609 427.898 290.102 428.508 290.109ZM297.461 314.359H291.789V311.047H290.305V314.359H284.648V315.578H297.461V314.359ZM285.242 310.406L285.852 311.578C288.07 311.141 290.141 309.805 291.039 307.938C291.953 309.781 294.039 311.094 296.305 311.516L296.898 310.344C294.234 309.93 291.805 308.023 291.805 305.875V305.75H296.352V304.531H285.711V305.75H290.258V305.875C290.258 308.023 287.844 309.969 285.242 310.406ZM309.664 304.031H300.086V305.25H308.195C308.195 306.312 308.18 307.508 307.805 309.141H298.477V310.359H311.289V309.141H309.305C309.672 307.453 309.672 306.188 309.664 305.094V304.031ZM300.039 317.156H309.68V312.141H300.039V317.156ZM301.492 315.953V313.312H308.211V315.953H301.492ZM319.398 304.562H312.852V311.094H319.398V304.562ZM314.305 309.922V305.766H317.945V309.922H314.305ZM314.43 317.031H323.898V315.828H315.914V312.594H314.43V317.031ZM321.82 313.578H323.305V308.75H325.336V307.5H323.305V303.312H321.82V313.578ZM341.68 303.328H340.18V317.328H341.68V303.328ZM330.18 313.578L330.961 314.781C335.766 312.477 337.508 308.93 337.508 304.828H330.852V306.016H336.008C335.719 309.281 333.898 311.805 330.18 313.578ZM354.773 303.328H353.289V317.359H354.773V309.969H357.023V308.75H354.773V303.328ZM344.461 313.875H345.586C348.188 313.883 350.047 313.812 352.242 313.422L352.055 312.172C350.055 312.531 348.297 312.633 345.945 312.641V305.875H351.008V304.672H344.461V313.875ZM369.352 303.328H367.883V306.453H365.227V307.672H367.883V310.266H365.148V311.5H367.883V317.359H369.352V303.328ZM358.18 305.766H362.93V308.5H358.211V314.125H359.273C361.484 314.125 363.273 314.062 365.461 313.719L365.336 312.5C363.344 312.789 361.672 312.883 359.695 312.891V309.672H364.383V304.562H358.18V305.766ZM384.289 311.219H371.523V312.422H377.148V317.312H378.602V312.422H384.289V311.219ZM372.242 308.984L372.805 310.156C375.07 309.797 377.047 308.664 377.906 307.07C378.758 308.664 380.742 309.797 383.039 310.156L383.586 308.984C380.938 308.625 378.781 307.07 378.758 305.344H383.086V304.156H372.711V305.344H377.07C377.023 307.07 374.852 308.625 372.242 308.984ZM389.617 307.156V304.609H388.18V307.219C388.188 309.602 387.141 312.078 385.164 313.266L386.086 314.375C387.445 313.547 388.414 312.031 388.922 310.258C389.406 311.875 390.289 313.273 391.602 314.062L392.43 312.922C390.555 311.773 389.617 309.391 389.617 307.156ZM390.914 309.484H393.086V316.641H394.492V303.594H393.086V308.25H390.914V309.484ZM395.977 317.328H397.398V303.328H395.977V317.328ZM411.992 314.344H408.93V310.656C410.055 310.023 410.727 309.031 410.727 307.797C410.727 305.594 408.562 304.148 405.555 304.141C402.555 304.148 400.391 305.594 400.398 307.797C400.391 309.055 401.094 310.055 402.242 310.688V314.344H399.18V315.578H411.992V314.344ZM401.836 307.797C401.836 306.289 403.359 305.328 405.555 305.328C407.734 305.328 409.281 306.289 409.289 307.797C409.281 309.297 407.734 310.273 405.555 310.281C403.359 310.273 401.836 309.297 401.836 307.797ZM403.711 314.344V311.234C404.273 311.367 404.898 311.438 405.555 311.438C406.227 311.438 406.859 311.367 407.43 311.234V314.344H403.711ZM415.586 304.688H413.758L413.898 312.734H415.445L415.586 304.688ZM413.57 315C413.562 315.609 414.07 316.102 414.68 316.109C415.281 316.102 415.781 315.609 415.789 315C415.781 314.391 415.281 313.891 414.68 313.891C414.07 313.891 413.562 314.391 413.57 315Z" fill="#6D727C"/>
</svg>
