<svg width="280" height="210" viewBox="0 0 280 210" fill="none" xmlns="http://www.w3.org/2000/svg">
<rect width="280" height="210" fill="#F4F6F9"/>
<path d="M131 84.3753C131.667 84.3753 132.229 84.1462 132.688 83.6878C133.146 83.2295 133.375 82.667 133.375 82.0003C133.375 81.3337 133.146 80.7712 132.688 80.3128C132.229 79.8545 131.667 79.6253 131 79.6253C130.333 79.6253 129.771 79.8545 129.313 80.3128C128.854 80.7712 128.625 81.3337 128.625 82.0003C128.625 82.667 128.854 83.2295 129.313 83.6878C129.771 84.1462 130.333 84.3753 131 84.3753ZM140 84.3753C140.667 84.3753 141.229 84.1462 141.688 83.6878C142.146 83.2295 142.375 82.667 142.375 82.0003C142.375 81.3337 142.146 80.7712 141.688 80.3128C141.229 79.8545 140.667 79.6253 140 79.6253C139.333 79.6253 138.771 79.8545 138.313 80.3128C137.854 80.7712 137.625 81.3337 137.625 82.0003C137.625 82.667 137.854 83.2295 138.313 83.6878C138.771 84.1462 139.333 84.3753 140 84.3753ZM148.958 84.3753C149.625 84.3753 150.188 84.1462 150.646 83.6878C151.104 83.2295 151.333 82.667 151.333 82.0003C151.333 81.3337 151.104 80.7712 150.646 80.3128C150.188 79.8545 149.625 79.6253 148.958 79.6253C148.292 79.6253 147.729 79.8545 147.271 80.3128C146.813 80.7712 146.583 81.3337 146.583 82.0003C146.583 82.667 146.813 83.2295 147.271 83.6878C147.729 84.1462 148.292 84.3753 148.958 84.3753ZM140 99.3337C137.639 99.3337 135.403 98.8753 133.292 97.9587C131.181 97.042 129.34 95.7989 127.771 94.2295C126.201 92.66 124.958 90.8198 124.042 88.7087C123.125 86.5975 122.667 84.3614 122.667 82.0003C122.667 79.6392 123.125 77.4031 124.042 75.292C124.958 73.1809 126.201 71.3406 127.771 69.7712C129.34 68.2017 131.181 66.9587 133.292 66.042C135.403 65.1253 137.639 64.667 140 64.667C142.361 64.667 144.597 65.1253 146.708 66.042C148.82 66.9587 150.66 68.2017 152.229 69.7712C153.799 71.3406 155.042 73.1809 155.958 75.292C156.875 77.4031 157.333 79.6392 157.333 82.0003C157.333 84.3614 156.875 86.5975 155.958 88.7087C155.042 90.8198 153.799 92.66 152.229 94.2295C150.66 95.7989 148.82 97.042 146.708 97.9587C144.597 98.8753 142.361 99.3337 140 99.3337ZM140 96.292C143.917 96.292 147.278 94.8962 150.083 92.1045C152.889 89.3128 154.292 85.9448 154.292 82.0003C154.292 78.0837 152.889 74.7225 150.083 71.917C147.278 69.1114 143.917 67.7087 140 67.7087C136.056 67.7087 132.688 69.1114 129.896 71.917C127.104 74.7225 125.708 78.0837 125.708 82.0003C125.708 85.9448 127.104 89.3128 129.896 92.1045C132.688 94.8962 136.056 96.292 140 96.292Z" fill="#C2C7D0"/>
<path d="M88.9941 115.496H87.8809V126.02H88.9941V115.496ZM80.8848 123.5H85.9238V116.375H84.8223V119.07H81.998V116.375H80.8848V123.5ZM81.998 122.586V119.949H84.8223V122.586H81.998ZM99.3652 115.496H98.252V126.02H99.3652V115.496ZM91.3379 123.441H92.2051C94.3848 123.436 95.7559 123.377 97.3262 123.09L97.209 122.164C95.7266 122.428 94.4492 122.486 92.4629 122.492V117.395H96.3652V116.469H91.3379V123.441ZM105.822 116.129C103.59 116.135 101.949 117.242 101.955 118.918C101.949 120.488 103.326 121.537 105.271 121.695V123.758H101.041V124.684H110.65V123.758H106.373V121.695C108.33 121.537 109.701 120.488 109.701 118.918C109.701 117.242 108.066 116.135 105.822 116.129ZM103.033 118.918C103.033 117.781 104.205 117.031 105.822 117.043C107.451 117.031 108.617 117.781 108.623 118.918C108.617 120.096 107.451 120.828 105.822 120.84C104.205 120.828 103.033 120.096 103.033 118.918ZM119.592 115.496H118.479V125.984H119.592V120.605H121.221V119.68H119.592V115.496ZM111.424 123.184L112.045 124.051C115.502 122.346 116.838 119.633 116.85 116.598H111.951V117.523H115.713C115.484 119.973 114.055 121.871 111.424 123.184ZM133.42 115.508H132.307V123.137H133.42V115.508ZM124.924 118.812C124.93 120.354 126.137 121.426 127.725 121.426C129.307 121.426 130.514 120.354 130.514 118.812C130.514 117.295 129.307 116.217 127.725 116.211C126.137 116.217 124.93 117.295 124.924 118.812ZM126.014 118.812C126.008 117.846 126.746 117.184 127.725 117.184C128.686 117.184 129.424 117.846 129.424 118.812C129.424 119.803 128.686 120.453 127.725 120.453C126.746 120.453 126.008 119.803 126.014 118.812ZM126.553 125.773H133.736V124.871H127.678V122.363H126.553V125.773ZM143.557 116.469H136.221V117.383H142.467V117.453C142.467 117.928 142.461 118.432 142.438 119L135.904 119.258L136.068 120.219L142.385 119.85C142.32 120.559 142.215 121.35 142.021 122.246L143.111 122.363C143.562 120.184 143.551 118.73 143.557 117.453V116.469ZM135.084 124.637H144.658V123.711H139.83V121.051H138.729V123.711H135.084V124.637ZM154.162 115.496H153.049V121.895H154.162V115.496ZM146.088 120.992H146.967C149.322 120.986 150.646 120.934 152.17 120.641L152.064 119.727C150.617 120.008 149.357 120.084 147.189 120.09V117.207H151.08V116.305H146.088V120.992ZM147.061 123.969C147.061 125.24 148.414 125.99 150.635 125.996C152.826 125.99 154.191 125.24 154.197 123.969C154.191 122.686 152.826 121.936 150.635 121.941C148.414 121.936 147.061 122.686 147.061 123.969ZM148.186 123.969C148.186 123.225 149.082 122.82 150.635 122.82C152.176 122.82 153.102 123.225 153.096 123.969C153.102 124.689 152.176 125.105 150.635 125.105C149.082 125.105 148.186 124.689 148.186 123.969ZM165.4 120.359H155.826V121.262H160.057V122.27C158.105 122.369 156.963 123.02 156.963 124.121C156.963 125.311 158.322 125.979 160.607 125.973C162.863 125.979 164.223 125.311 164.229 124.121C164.223 123.02 163.08 122.375 161.158 122.27V121.262H165.4V120.359ZM156.33 118.93L156.717 119.809C158.539 119.598 160.033 118.83 160.613 117.717C161.182 118.83 162.688 119.598 164.51 119.809L164.908 118.93C162.986 118.736 161.51 117.887 161.357 116.867H164.545V115.977H156.705V116.867H159.857C159.705 117.881 158.217 118.736 156.33 118.93ZM158.088 124.121C158.082 123.471 159.002 123.119 160.607 123.113C162.189 123.119 163.115 123.471 163.115 124.121C163.115 124.76 162.189 125.129 160.607 125.117C159.002 125.129 158.082 124.76 158.088 124.121ZM174.904 115.496H173.791V121.133H174.904V115.496ZM166.408 118.414C166.414 119.85 167.598 120.852 169.209 120.84C170.814 120.852 171.998 119.85 171.998 118.414C171.998 116.973 170.814 115.971 169.209 115.977C167.598 115.971 166.414 116.973 166.408 118.414ZM167.498 118.414C167.492 117.518 168.213 116.908 169.209 116.914C170.193 116.908 170.908 117.518 170.908 118.414C170.908 119.322 170.193 119.926 169.209 119.926C168.213 119.926 167.492 119.322 167.498 118.414ZM168.037 125.867H174.904V121.637H173.803V122.82H169.127V121.637H168.037V125.867ZM169.127 124.953V123.699H173.803V124.953H169.127ZM185.287 115.496H184.174V125.996H185.287V115.496ZM177.213 123.324H178.092C179.75 123.33 181.438 123.201 183.295 122.82L183.143 121.883C181.461 122.223 179.85 122.357 178.314 122.363V116.516H177.213V123.324ZM195.119 115.496H194.006V126.02H195.119V120.477H196.807V119.562H195.119V115.496ZM187.385 123.406H188.229C190.18 123.412 191.574 123.359 193.221 123.066L193.08 122.129C191.58 122.398 190.262 122.475 188.498 122.48V117.406H192.295V116.504H187.385V123.406ZM198.506 125.082C198.957 125.076 199.332 124.707 199.338 124.25C199.332 123.793 198.957 123.418 198.506 123.418C198.049 123.418 197.668 123.793 197.674 124.25C197.668 124.707 198.049 125.076 198.506 125.082ZM100.221 141.77H95.9668V139.285H94.8535V141.77H90.6113V142.684H100.221V141.77ZM91.0566 138.805L91.5137 139.684C93.1777 139.355 94.7305 138.354 95.4043 136.953C96.0898 138.336 97.6543 139.32 99.3535 139.637L99.7988 138.758C97.8008 138.447 95.9785 137.018 95.9785 135.406V135.312H99.3887V134.398H91.4082V135.312H94.8184V135.406C94.8184 137.018 93.0078 138.477 91.0566 138.805ZM109.373 134.023H102.189V134.938H108.271C108.271 135.734 108.26 136.631 107.979 137.855H100.982V138.77H110.592V137.855H109.104C109.379 136.59 109.379 135.641 109.373 134.82V134.023ZM102.154 143.867H109.385V140.105H102.154V143.867ZM103.244 142.965V140.984H108.283V142.965H103.244ZM116.674 134.422H111.764V139.32H116.674V134.422ZM112.854 138.441V135.324H115.584V138.441H112.854ZM112.947 143.773H120.049V142.871H114.061V140.445H112.947V143.773ZM118.49 141.184H119.604V137.562H121.127V136.625H119.604V133.484H118.49V141.184ZM133.385 133.496H132.26V143.996H133.385V133.496ZM124.76 141.184L125.346 142.086C128.949 140.357 130.256 137.697 130.256 134.621H125.264V135.512H129.131C128.914 137.961 127.549 139.854 124.76 141.184ZM143.205 133.496H142.092V144.02H143.205V138.477H144.893V137.562H143.205V133.496ZM135.471 141.406H136.314C138.266 141.412 139.66 141.359 141.307 141.066L141.166 140.129C139.666 140.398 138.348 140.475 136.584 140.48V135.406H140.381V134.504H135.471V141.406ZM154.139 133.496H153.037V135.84H151.045V136.754H153.037V138.699H150.986V139.625H153.037V144.02H154.139V133.496ZM145.76 135.324H149.322V137.375H145.783V141.594H146.58C148.238 141.594 149.58 141.547 151.221 141.289L151.127 140.375C149.633 140.592 148.379 140.662 146.896 140.668V138.254H150.412V134.422H145.76V135.324ZM165.342 139.414H155.768V140.316H159.986V143.984H161.076V140.316H165.342V139.414ZM156.307 137.738L156.729 138.617C158.428 138.348 159.91 137.498 160.555 136.303C161.193 137.498 162.682 138.348 164.404 138.617L164.814 137.738C162.828 137.469 161.211 136.303 161.193 135.008H164.439V134.117H156.658V135.008H159.928C159.893 136.303 158.264 137.469 156.307 137.738ZM169.338 136.367V134.457H168.26V136.414C168.266 138.201 167.48 140.059 165.998 140.949L166.689 141.781C167.709 141.16 168.436 140.023 168.816 138.693C169.18 139.906 169.842 140.955 170.826 141.547L171.447 140.691C170.041 139.83 169.338 138.043 169.338 136.367ZM170.311 138.113H171.939V143.48H172.994V133.695H171.939V137.188H170.311V138.113ZM174.107 143.996H175.174V133.496H174.107V143.996ZM186.119 141.758H183.822V138.992C184.666 138.518 185.17 137.773 185.17 136.848C185.17 135.195 183.547 134.111 181.291 134.105C179.041 134.111 177.418 135.195 177.424 136.848C177.418 137.791 177.945 138.541 178.807 139.016V141.758H176.51V142.684H186.119V141.758ZM178.502 136.848C178.502 135.717 179.645 134.996 181.291 134.996C182.926 134.996 184.086 135.717 184.092 136.848C184.086 137.973 182.926 138.705 181.291 138.711C179.645 138.705 178.502 137.973 178.502 136.848ZM179.908 141.758V139.426C180.33 139.525 180.799 139.578 181.291 139.578C181.795 139.578 182.27 139.525 182.697 139.426V141.758H179.908ZM188.814 134.516H187.443L187.549 140.551H188.709L188.814 134.516ZM187.303 142.25C187.297 142.707 187.678 143.076 188.135 143.082C188.586 143.076 188.961 142.707 188.967 142.25C188.961 141.793 188.586 141.418 188.135 141.418C187.678 141.418 187.297 141.793 187.303 142.25Z" fill="#6D727C"/>
</svg>
