<svg width="884" height="604" viewBox="0 0 884 604" fill="none" xmlns="http://www.w3.org/2000/svg">
<g filter="url(#filter0_d_646_8011)">
<path d="M449.93 320.15C622.18 320.15 766.7 347.43 806.17 384.22C807.839 381.123 808.732 377.668 808.77 374.15C808.77 327.58 644.5 289.82 441.86 289.82C239.22 289.82 75 327.58 75 374.15C75 381.15 78.7 387.92 85.66 394.41C107.27 352.58 262.11 320.15 449.93 320.15Z" fill="black"/>
<path d="M377.321 388.35C373.026 384.838 367.872 382.535 362.391 381.68C360.296 381.351 358.152 381.604 356.191 382.41C354.525 383.152 353.201 384.495 352.481 386.17C351.651 387.901 351.491 389.878 352.031 391.72C352.695 393.748 353.914 395.55 355.551 396.92C359.828 400.474 365 402.785 370.501 403.6C372.626 403.899 374.793 403.616 376.771 402.78C378.535 401.991 379.932 400.561 380.681 398.78C381.452 397.11 381.541 395.205 380.931 393.47C380.194 391.478 378.95 389.713 377.321 388.35Z" fill="#164FA1"/>
<path d="M380.141 324.32C379.311 326.051 379.151 328.028 379.691 329.87C380.356 331.895 381.575 333.693 383.211 335.06C387.505 338.62 392.693 340.934 398.211 341.75C400.337 342.039 402.501 341.756 404.481 340.93C406.243 340.139 407.64 338.71 408.391 336.93C409.169 335.262 409.259 333.354 408.641 331.62C407.899 329.623 406.643 327.857 405.001 326.5C402.901 324.704 400.541 323.238 398.001 322.15C397.071 321.74 396.171 321.39 395.291 321.08C390.931 321.233 386.598 321.4 382.291 321.58C381.363 322.306 380.626 323.246 380.141 324.32Z" fill="#164FA1"/>
<path d="M392.27 374.67C388.687 370.422 384.191 367.038 379.118 364.77C374.045 362.501 368.525 361.408 362.97 361.57C357.834 361.889 352.91 363.735 348.83 366.87C344.456 370.481 340.975 375.054 338.66 380.232C336.344 385.409 335.256 391.052 335.48 396.72C335.884 401.829 337.798 406.702 340.98 410.72C344.566 414.965 349.062 418.348 354.134 420.618C359.207 422.887 364.725 423.985 370.28 423.83C375.402 423.512 380.315 421.685 384.4 418.58C388.774 414.966 392.254 410.392 394.569 405.212C396.885 400.033 397.974 394.389 397.75 388.72C397.363 383.595 395.455 378.703 392.27 374.67ZM380.68 398.78C379.932 400.561 378.534 401.991 376.77 402.78C374.793 403.616 372.626 403.899 370.5 403.6C364.999 402.785 359.827 400.474 355.55 396.92C353.913 395.55 352.694 393.748 352.03 391.72C351.49 389.878 351.65 387.901 352.48 386.17C353.2 384.495 354.524 383.152 356.19 382.41C358.151 381.604 360.295 381.351 362.39 381.68C367.871 382.535 373.025 384.838 377.32 388.35C378.949 389.713 380.194 391.478 380.93 393.47C381.541 395.205 381.451 397.11 380.68 398.78Z" fill="#9FBFE5"/>
<path d="M383.85 320.56C385.81 319.75 387.955 319.494 390.05 319.82C391.816 320.057 393.552 320.48 395.23 321.08C404.723 320.76 414.327 320.52 424.04 320.36C423.103 317.634 421.713 315.085 419.93 312.82C416.344 308.575 411.848 305.192 406.776 302.922C401.703 300.653 396.185 299.555 390.63 299.71C385.495 300.034 380.573 301.879 376.49 305.01C372.015 308.527 368.514 313.129 366.32 318.38C365.726 319.702 365.202 321.054 364.75 322.43C370.517 322.123 376.347 321.84 382.24 321.58C382.732 321.174 383.273 320.831 383.85 320.56Z" fill="#9FBFE5"/>
<path d="M363.141 334.87C363.551 339.977 365.465 344.849 368.641 348.87C372.228 353.113 376.724 356.494 381.796 358.762C386.869 361.03 392.387 362.127 397.941 361.97C403.062 361.652 407.975 359.825 412.061 356.72C416.435 353.109 419.915 348.536 422.231 343.358C424.547 338.18 425.635 332.538 425.411 326.87C425.227 324.645 424.767 322.451 424.041 320.34C414.321 320.487 404.717 320.727 395.231 321.06C396.111 321.37 397.011 321.72 397.941 322.13C400.481 323.218 402.841 324.684 404.941 326.48C406.572 327.841 407.817 329.606 408.551 331.6C409.169 333.334 409.079 335.242 408.301 336.91C407.55 338.69 406.153 340.119 404.391 340.91C402.411 341.736 400.246 342.019 398.121 341.73C392.603 340.914 387.415 338.6 383.121 335.04C381.485 333.673 380.265 331.875 379.601 329.85C379.061 328.008 379.221 326.031 380.051 324.3C380.521 323.232 381.241 322.292 382.151 321.56C376.271 321.813 370.441 322.097 364.661 322.41C363.305 326.415 362.788 330.656 363.141 334.87Z" fill="#9FBFE5"/>
<path d="M396.3 287C399.886 291.245 404.382 294.628 409.455 296.898C414.527 299.167 420.046 300.265 425.6 300.11C430.722 299.792 435.635 297.965 439.72 294.86C444.094 291.246 447.574 286.672 449.89 281.492C452.205 276.313 453.294 270.669 453.07 265C452.67 259.894 450.763 255.021 447.59 251C444.004 246.757 439.507 243.375 434.435 241.108C429.362 238.84 423.844 237.743 418.29 237.9C413.154 238.219 408.231 240.065 404.15 243.2C399.783 246.806 396.307 251.371 393.991 256.539C391.676 261.708 390.584 267.341 390.8 273C391.209 278.108 393.123 282.98 396.3 287ZM407.8 262.43C408.52 260.755 409.845 259.412 411.51 258.67C413.472 257.865 415.616 257.612 417.71 257.94C423.192 258.795 428.346 261.098 432.64 264.61C434.27 265.973 435.514 267.738 436.25 269.73C436.868 271.464 436.779 273.372 436 275.04C435.252 276.821 433.854 278.251 432.09 279.04C430.113 279.876 427.946 280.159 425.82 279.86C420.319 279.045 415.148 276.734 410.87 273.18C409.234 271.81 408.014 270.008 407.35 267.98C406.824 266.146 406.984 264.184 407.8 262.46V262.43Z" fill="#9FBFE5"/>
<path d="M493.801 235.32L464.591 222.26L464.731 221.96H465.271C467.397 221.974 469.505 221.577 471.481 220.79C473.525 219.968 475.38 218.736 476.931 217.17C478.662 215.419 480.053 213.36 481.031 211.1C482.792 207.259 483.39 202.987 482.751 198.81C481.981 194.347 479.911 190.211 476.801 186.92C473.467 183.2 468.777 179.983 462.731 177.27C456.531 174.51 450.914 173.16 445.881 173.22C441.375 173.123 436.945 174.388 433.171 176.85C429.781 179.159 427.11 182.375 425.461 186.13C424.412 188.375 423.814 190.804 423.701 193.28C423.609 195.464 423.97 197.643 424.761 199.68C425.541 201.619 426.635 203.417 428.001 205C428.281 205.28 428.551 205.57 428.821 205.85L428.601 206.35L419.161 202.13L410.811 220.8L485.401 254.15L493.801 235.32ZM463.441 211.44C462.688 213.219 461.327 214.672 459.601 215.54C457.717 216.433 455.626 216.799 453.551 216.6C450.952 216.38 448.413 215.703 446.051 214.6C443.619 213.572 441.385 212.127 439.451 210.33C437.929 208.95 436.836 207.163 436.301 205.18C435.876 203.309 436.098 201.349 436.931 199.62C437.661 197.875 438.962 196.429 440.621 195.52C442.452 194.62 444.505 194.273 446.531 194.52C451.787 195.19 456.727 197.399 460.731 200.87C462.262 202.236 463.381 204.002 463.961 205.97C464.433 207.798 464.249 209.734 463.441 211.44Z" fill="#9FBFE5"/>
<path d="M443.05 158.71C448.49 161.19 453.66 161.397 458.56 159.33C463.46 157.263 468.096 153.263 472.47 147.33L477.38 140.77C478.816 138.769 480.418 136.892 482.17 135.16C483.24 134.033 484.573 133.188 486.05 132.7C487.234 132.378 488.492 132.466 489.62 132.95C490.829 133.51 491.818 134.456 492.43 135.64C493.092 137.017 493.362 138.55 493.21 140.07C493.037 142.089 492.501 144.061 491.63 145.89C490.677 148.166 489.276 150.227 487.51 151.95C486.02 153.377 484.134 154.321 482.1 154.66C479.943 154.962 477.744 154.672 475.74 153.82L467.61 172C473.43 174.52 478.83 175.377 483.81 174.57C488.87 173.716 493.549 171.337 497.22 167.75C501.578 163.44 505.026 158.298 507.36 152.63C509.871 147.348 511.377 141.644 511.8 135.81C512.174 131.133 511.129 126.453 508.8 122.38C506.324 118.415 502.67 115.324 498.35 113.54C492.643 111.027 487.136 110.77 481.83 112.77C476.523 114.77 471.313 119.217 466.2 126.11L462.3 131.61C460.602 134.103 458.468 136.267 456 138C455.209 138.543 454.284 138.858 453.327 138.911C452.369 138.964 451.415 138.753 450.57 138.3C449.469 137.823 448.563 136.988 448 135.93C447.402 134.704 447.152 133.338 447.28 131.98C447.462 130.112 447.973 128.29 448.79 126.6C449.574 124.743 450.697 123.048 452.1 121.6C453.208 120.463 454.646 119.704 456.21 119.43C457.829 119.193 459.481 119.375 461.01 119.96L469.16 101.73C464.853 99.7195 460.049 99.0238 455.35 99.73C450.636 100.526 446.257 102.681 442.75 105.93C438.625 109.767 435.363 114.437 433.18 119.63C430.778 124.743 429.447 130.294 429.27 135.94C429.101 140.785 430.304 145.579 432.74 149.77C435.151 153.759 438.759 156.888 443.05 158.71Z" fill="#9FBFE5"/>
<path d="M509.629 100.06C509.783 101.888 510.421 103.642 511.479 105.14C512.533 106.644 513.993 107.817 515.689 108.52C517.382 109.339 519.27 109.665 521.139 109.46C522.994 109.274 524.761 108.582 526.249 107.46C527.764 106.35 528.957 104.86 529.709 103.14C530.449 101.481 530.738 99.6565 530.549 97.85C530.353 95.9862 529.68 94.2044 528.596 92.6756C527.512 91.1468 526.053 89.9224 524.359 89.12C522.666 88.4032 520.812 88.1545 518.989 88.4C517.158 88.6278 515.413 89.3159 513.919 90.4C512.442 91.4564 511.275 92.8894 510.539 94.55C509.751 96.2729 509.437 98.175 509.629 100.06Z" fill="#9FBFE5"/>
<path d="M509.66 84.92L460.66 60.79L452.07 80.01L502.67 100.54L509.66 84.92Z" fill="#9FBFE5"/>
<path d="M343.261 450.31C340.243 447.434 336.721 445.139 332.871 443.54C329.102 441.735 325.035 440.634 320.871 440.29C317.619 440.023 314.366 440.775 311.561 442.44C308.803 444.212 306.656 446.788 305.411 449.82C305.044 450.649 304.73 451.501 304.471 452.37C318.231 453.64 332.421 454.74 346.951 455.63C346.066 453.64 344.814 451.836 343.261 450.31Z" fill="#164FA1"/>
<path d="M449.929 320.15C441.229 320.15 432.599 320.22 424.039 320.36C424.765 322.471 425.225 324.665 425.409 326.89C425.633 332.558 424.545 338.2 422.23 343.378C419.914 348.556 416.433 353.129 412.059 356.74C407.975 359.849 403.062 361.679 397.939 362C392.385 362.157 386.867 361.06 381.795 358.792C376.722 356.525 372.226 353.143 368.639 348.9C365.463 344.879 363.55 340.007 363.139 334.9C362.818 330.687 363.366 326.453 364.749 322.46C217.009 330.54 103.889 359.14 85.6191 394.46C112.329 419.35 187.119 439.89 286.059 450.57C286.71 447.784 287.632 445.068 288.809 442.46C291.496 436.17 295.735 430.665 301.129 426.46C306.43 422.421 312.808 420.041 319.459 419.62C326.432 419.08 333.812 420.553 341.599 424.04C349.386 427.527 355.386 432.04 359.599 437.58C363.706 442.825 366.182 449.16 366.719 455.8C366.719 456.11 366.719 456.42 366.719 456.73C390.959 457.89 416.059 458.5 441.789 458.5C629.609 458.5 784.459 426.07 806.099 384.24C766.699 347.43 622.179 320.15 449.929 320.15ZM394.569 405.23C392.381 410.484 388.879 415.088 384.399 418.6C380.314 421.705 375.401 423.532 370.279 423.85C364.728 424.002 359.213 422.903 354.144 420.633C349.076 418.364 344.583 414.983 340.999 410.74C337.818 406.722 335.903 401.849 335.499 396.74C335.275 391.072 336.363 385.43 338.679 380.252C340.994 375.074 344.475 370.501 348.849 366.89C352.93 363.755 357.853 361.909 362.989 361.59C368.544 361.428 374.064 362.521 379.137 364.79C384.21 367.058 388.706 370.442 392.289 374.69C395.478 378.729 397.386 383.628 397.769 388.76C398.124 394.433 397.022 400.103 394.569 405.23Z" fill="#164FA1"/>
<path d="M359.63 437.56C355.397 432.02 349.397 427.507 341.63 424.02C333.863 420.533 326.483 419.06 319.49 419.6C312.839 420.021 306.461 422.401 301.16 426.44C295.765 430.645 291.526 436.15 288.84 442.44C287.662 445.048 286.741 447.764 286.09 450.55C292.13 451.217 298.257 451.833 304.47 452.4C304.729 451.531 305.043 450.679 305.41 449.85C306.656 446.818 308.802 444.242 311.56 442.47C314.365 440.805 317.619 440.053 320.87 440.32C325.034 440.664 329.101 441.765 332.87 443.57C336.72 445.169 340.242 447.464 343.26 450.34C344.803 451.868 346.044 453.673 346.92 455.66C353.48 456.06 360.103 456.42 366.79 456.74C366.79 456.43 366.79 456.12 366.79 455.81C366.247 449.156 363.757 442.808 359.63 437.56Z" fill="#9FBFE5"/>
</g>
<g filter="url(#filter1_d_646_8011)">
<path d="M650.438 570.915C691.809 570.915 725.347 563.488 725.347 554.327C725.347 545.165 691.809 537.739 650.438 537.739C609.067 537.739 575.529 545.165 575.529 554.327C575.529 563.488 609.067 570.915 650.438 570.915Z" fill="#164FA1"/>
<path d="M678.801 566.752C720.172 566.752 753.71 559.325 753.71 550.164C753.71 541.002 720.172 533.575 678.801 533.575C637.43 533.575 603.893 541.002 603.893 550.164C603.893 559.325 637.43 566.752 678.801 566.752Z" fill="#9FBFE5"/>
<path d="M688.222 252.125H667.182V263.418H688.222V252.125Z" fill="#164FA1"/>
<path d="M690.143 246.008H665.275C663.728 246.008 662.475 247.26 662.475 248.805V250.737C662.475 252.282 663.728 253.534 665.275 253.534H690.143C691.689 253.534 692.943 252.282 692.943 250.737V248.805C692.943 247.26 691.689 246.008 690.143 246.008Z" fill="#9FBFE5"/>
<path d="M714.374 390.942L637.53 422.151L637.516 422.222L714.381 391.006L714.374 390.942Z" fill="#9FBFE5"/>
<path d="M694.594 264.543C694.396 263.268 693.748 262.106 692.766 261.267C691.784 260.428 690.534 259.968 689.242 259.97H666.508C665.21 259.971 663.956 260.436 662.973 261.282C661.989 262.127 661.342 263.297 661.149 264.579L650.438 336.023L702.449 314.889L694.594 264.543Z" fill="#9FBFE5"/>
<path d="M629.072 478.522L618.502 549.038H739.106L722.312 441.713L629.44 479.428L629.072 478.522Z" fill="#9FBFE5"/>
<path d="M706.398 340.002L702.471 314.889L650.438 336.023L646.178 364.456L706.398 340.002Z" fill="#164FA1"/>
<path d="M706.455 340.356L646.114 364.867L641.854 393.3L710.382 365.468L706.455 340.356Z" fill="#9FBFE5"/>
<path d="M706.398 340.002L646.177 364.456L646.113 364.867L706.454 340.356L706.398 340.002Z" fill="#164FA1"/>
<path d="M710.382 365.469L641.854 393.307L637.529 422.151L714.373 390.942L710.382 365.469Z" fill="#164FA1"/>
<path d="M718.328 416.239L714.379 391.006L637.514 422.222L633.232 450.796L718.328 416.239Z" fill="#9FBFE5"/>
<path d="M633.297 451.023L633.226 450.839L629.072 478.522L629.441 479.428L722.313 441.713L718.364 416.473L633.297 451.023Z" fill="#164FA1"/>
<path d="M633.234 450.796L633.213 450.811L633.227 450.839L633.234 450.796Z" fill="#164FA1"/>
<path d="M633.227 450.839L633.297 451.023L718.365 416.473L718.329 416.239L633.234 450.796L633.227 450.839Z" fill="#164FA1"/>
<g opacity="0.41">
<g opacity="0.41">
<path opacity="0.41" d="M740.02 540.004L724.659 441.805L720.71 416.572L720.675 416.331L716.726 391.098V391.034L712.742 365.546L708.815 340.441L708.758 340.08L704.831 314.967L696.955 264.621C696.754 263.347 696.105 262.187 695.124 261.348C694.143 260.51 692.894 260.049 691.603 260.048H668.84C667.542 260.047 666.287 260.512 665.304 261.358C664.32 262.204 663.673 263.374 663.481 264.657L652.77 336.115L648.517 364.555L648.46 364.959L644.206 393.399L639.882 422.243V422.314L635.629 450.896L631.482 478.578L622.266 539.983C612.264 542.815 606.295 546.355 606.295 550.221C606.295 559.382 639.833 566.809 681.204 566.809C722.575 566.809 756.041 559.417 756.041 550.256C756.041 546.383 750.051 542.822 740.02 540.004Z" fill="#164FA1"/>
</g>
</g>
</g>
<defs>
<filter id="filter0_d_646_8011" x="-4" y="0" width="891.73" height="542.16" filterUnits="userSpaceOnUse" color-interpolation-filters="sRGB">
<feFlood flood-opacity="0" result="BackgroundImageFix"/>
<feColorMatrix in="SourceAlpha" type="matrix" values="0 0 0 0 0 0 0 0 0 0 0 0 0 0 0 0 0 0 127 0" result="hardAlpha"/>
<feOffset dy="4"/>
<feGaussianBlur stdDeviation="2"/>
<feComposite in2="hardAlpha" operator="out"/>
<feColorMatrix type="matrix" values="0 0 0 0 0 0 0 0 0 0 0 0 0 0 0 0 0 0 0.25 0"/>
<feBlend mode="normal" in2="BackgroundImageFix" result="effect1_dropShadow_646_8011"/>
<feBlend mode="normal" in="SourceGraphic" in2="effect1_dropShadow_646_8011" result="shape"/>
</filter>
<filter id="filter1_d_646_8011" x="551" y="189" width="223" height="423" filterUnits="userSpaceOnUse" color-interpolation-filters="sRGB">
<feFlood flood-opacity="0" result="BackgroundImageFix"/>
<feColorMatrix in="SourceAlpha" type="matrix" values="0 0 0 0 0 0 0 0 0 0 0 0 0 0 0 0 0 0 127 0" result="hardAlpha"/>
<feOffset dy="4"/>
<feGaussianBlur stdDeviation="2"/>
<feComposite in2="hardAlpha" operator="out"/>
<feColorMatrix type="matrix" values="0 0 0 0 0 0 0 0 0 0 0 0 0 0 0 0 0 0 0.25 0"/>
<feBlend mode="normal" in2="BackgroundImageFix" result="effect1_dropShadow_646_8011"/>
<feBlend mode="normal" in="SourceGraphic" in2="effect1_dropShadow_646_8011" result="shape"/>
</filter>
</defs>
</svg>
