<svg width="12" height="12" viewBox="0 0 12 12" fill="none" xmlns="http://www.w3.org/2000/svg">
<path d="M6.05964 9.39824C6.21519 9.39824 6.34644 9.34477 6.45338 9.23782C6.56033 9.13088 6.6138 8.99963 6.6138 8.84408C6.6138 8.68852 6.56033 8.55727 6.45338 8.45033C6.34644 8.34338 6.21519 8.28991 6.05964 8.28991C5.90408 8.28991 5.77283 8.34338 5.66589 8.45033C5.55894 8.55727 5.50547 8.68852 5.50547 8.84408C5.50547 8.99963 5.55894 9.13088 5.66589 9.23782C5.77283 9.34477 5.90408 9.39824 6.05964 9.39824ZM5.54922 7.26908H6.40964C6.40964 7.0163 6.44123 6.78539 6.50443 6.57637C6.56762 6.36734 6.7645 6.12671 7.09505 5.85449C7.39644 5.60171 7.61033 5.3538 7.73672 5.11074C7.86311 4.86769 7.9263 4.60033 7.9263 4.30866C7.9263 3.79338 7.75859 3.38019 7.42318 3.06908C7.08776 2.75796 6.64297 2.60241 6.0888 2.60241C5.61241 2.60241 5.19193 2.72151 4.82734 2.9597C4.46276 3.19789 4.19783 3.52602 4.03255 3.94408L4.80547 4.23574C4.91241 3.96352 5.07283 3.75206 5.28672 3.60137C5.50061 3.45067 5.75339 3.37533 6.04505 3.37533C6.37561 3.37533 6.64297 3.46526 6.84714 3.64512C7.0513 3.82498 7.15339 4.05588 7.15339 4.33783C7.15339 4.55171 7.09019 4.75345 6.9638 4.94303C6.83741 5.13262 6.65269 5.32949 6.40964 5.53366C6.11797 5.78644 5.90165 6.03678 5.76068 6.2847C5.6197 6.53262 5.54922 6.86074 5.54922 7.26908ZM6.0013 11.8337C5.18464 11.8337 4.42144 11.6854 3.71172 11.3889C3.002 11.0923 2.38464 10.6816 1.85964 10.1566C1.33464 9.63158 0.921441 9.01421 0.620052 8.30449C0.318663 7.59477 0.167969 6.82671 0.167969 6.00033C0.167969 5.18366 0.318663 4.42046 0.620052 3.71074C0.921441 3.00102 1.33464 2.38366 1.85964 1.85866C2.38464 1.33366 3.002 0.920464 3.71172 0.619076C4.42144 0.317687 5.18464 0.166992 6.0013 0.166992C6.80825 0.166992 7.56658 0.317687 8.2763 0.619076C8.98602 0.920464 9.60339 1.33366 10.1284 1.85866C10.6534 2.38366 11.069 3.00102 11.3753 3.71074C11.6815 4.42046 11.8346 5.18366 11.8346 6.00033C11.8346 6.82671 11.6815 7.59477 11.3753 8.30449C11.069 9.01421 10.6534 9.63158 10.1284 10.1566C9.60339 10.6816 8.98602 11.0923 8.2763 11.3889C7.56658 11.6854 6.80825 11.8337 6.0013 11.8337ZM6.0013 10.9587C7.37214 10.9587 8.54123 10.4725 9.50859 9.50033C10.476 8.5281 10.9596 7.36144 10.9596 6.00033C10.9596 4.63921 10.476 3.47255 9.50859 2.50033C8.54123 1.5281 7.37214 1.04199 6.0013 1.04199C4.61102 1.04199 3.43707 1.5281 2.47943 2.50033C1.52179 3.47255 1.04297 4.63921 1.04297 6.00033C1.04297 7.36144 1.52179 8.5281 2.47943 9.50033C3.43707 10.4725 4.61102 10.9587 6.0013 10.9587Z" fill="#9297A0"/>
</svg>
