<svg width="664" height="312" viewBox="0 0 664 312" fill="none" xmlns="http://www.w3.org/2000/svg">
<g filter="url(#filter0_dd_404_4627)">
<rect x="32" y="24" width="600" height="248" rx="12" fill="white"/>
<path d="M104 95H91.83L97.42 89.41L96 88L88 96L96 104L97.41 102.59L91.83 97H104V95Z" fill="#C2C7D0"/>
<path d="M130 88L128.59 89.41L134.17 95H122V97H134.17L128.59 102.59L130 104L138 96L130 88Z" fill="#C2C7D0"/>
<path d="M169.65 90.35C168.2 88.9 166.21 88 164 88C159.58 88 156.01 91.58 156.01 96C156.01 100.42 159.58 104 164 104C167.73 104 170.84 101.45 171.73 98H169.65C168.83 100.33 166.61 102 164 102C160.69 102 158 99.31 158 96C158 92.69 160.69 90 164 90C165.66 90 167.14 90.69 168.22 91.78L165 95H172V88L169.65 90.35Z" fill="#C2C7D0"/>
<rect x="186" y="84" width="394" height="24" rx="12" fill="#E6E9F1" fill-opacity="0.8"/>
<path d="M72 72H592H72ZM592 121H72V119H592V121ZM72 120V72V120ZM592 72V120V72Z" fill="#E6E9F1"/>
<g filter="url(#filter1_dd_404_4627)">
<rect x="492" y="62" width="64" height="64" rx="32" fill="#E6E9F1"/>
<path d="M533.167 91.25V84.8333C533.167 83.825 532.342 83 531.333 83H509.333C508.325 83 507.5 83.825 507.5 84.8333V103.167C507.5 104.175 508.325 105 509.333 105H531.333C532.342 105 533.167 104.175 533.167 103.167V96.75L540.5 104.083V83.9167L533.167 91.25Z" fill="#2D3037"/>
<rect x="492" y="62" width="64" height="64" rx="32" stroke="white" stroke-width="4"/>
<path d="M539.393 105.334L540.333 104.394L537.94 102L540.333 99.607L539.393 98.667L537 101.06L534.607 98.667L533.667 99.607L536.06 102L533.667 104.394L534.607 105.334L537 102.94L539.393 105.334Z" fill="white"/>
<path d="M537 95.333C533.313 95.333 530.333 98.313 530.333 102C530.333 105.686 533.313 108.666 537 108.666C540.687 108.666 543.667 105.686 543.667 102C543.667 98.313 540.687 95.333 537 95.333ZM540.333 104.393L539.393 105.333L537 102.94L534.607 105.333L533.667 104.393L536.06 102L533.667 99.6063L534.607 98.6663L537 101.06L539.393 98.6663L540.333 99.6063L537.94 102L540.333 104.393Z" fill="#F16E6E"/>
</g>
<path d="M176.516 174.867H166.625V177.258H173.527C173.457 178.266 173.305 179.227 173.082 180.129L165.5 180.586L165.875 183.141L172.18 182.555C170.973 184.922 168.852 186.902 165.289 188.672L166.93 190.922C174.898 186.926 176.492 181.453 176.516 174.867ZM179.211 194.109H182.211V183.469H185.234V181.008H182.211V172.828H179.211V194.109ZM195.219 175.031H186.734V188.789H195.219V182.977H197.352V193.172H200.164V173.133H197.352V180.586H195.219V175.031ZM189.523 186.445V177.398H192.43V186.445H189.523ZM201.758 194.156H204.617V172.828H201.758V194.156ZM223.695 172.828H220.742V194.203H223.695V183.352H226.836V180.891H223.695V172.828ZM207.734 177.023H214.625V180.516H207.758V189.234H209.562C213.312 189.234 216.242 189.105 219.5 188.508L219.242 186.117C216.406 186.598 213.84 186.738 210.734 186.75V182.883H217.602V174.609H207.734V177.023ZM244.648 174.117H234.219V183.094H244.648V174.117ZM235.344 191.859L236.375 194.109C239.938 193.77 242.48 192.516 243.793 190.828C245.094 192.492 247.613 193.781 251.164 194.109L252.172 191.859C247.941 191.449 245.703 189.773 245.375 188.32H251.352V186.094H245.281V184.336H242.281V186.094H236.211V188.32H242.188C241.859 189.82 239.609 191.508 235.344 191.859ZM237.172 180.75V176.438H241.672V180.75H237.172ZM248 184.922H250.977V172.828H248V184.922ZM270.336 174.844H260.094V188.953H270.336V174.844ZM263.047 186.586V177.188H267.359V186.586H263.047ZM273.242 194.156H276.242V183.352H279.383V180.867H276.242V172.828H273.242V194.156ZM298.016 172.828H294.992V194.203H298.016V172.828ZM280.789 181.922C280.777 186.609 283.156 189.539 286.438 189.539C289.648 189.539 292.039 186.609 292.039 181.922C292.039 177.27 289.648 174.328 286.438 174.328C283.156 174.328 280.777 177.27 280.789 181.922ZM283.672 181.922C283.66 178.758 284.773 177.023 286.438 177.023C288.055 177.023 289.145 178.758 289.156 181.922C289.145 185.098 288.055 186.832 286.438 186.82C284.773 186.832 283.66 185.098 283.672 181.922ZM318.359 174.703H303.125V177.094H315.43V177.188C315.43 178.289 315.418 179.391 315.371 180.562L302.469 181.031L302.844 183.422L315.219 182.812C315.066 184.254 314.82 185.824 314.398 187.594L317.375 187.875C318.348 183.246 318.348 180.293 318.359 177.188V174.703ZM300.898 191.602H320.352V189.164H300.898V191.602ZM338.469 172.828H335.469V194.109H338.469V183.469H341.492V181.008H338.469V172.828ZM321.406 188.133L323.094 190.43C330.266 186.902 332.75 181.383 332.773 175.008H322.625V177.445H329.738C329.176 182.203 326.457 185.602 321.406 188.133ZM355.625 179.508V178.688H359.984V176.297H355.648V173.297H352.648V176.297H348.266V178.688H352.672V179.508C352.648 182.707 350.996 186.34 347.516 187.875L349.156 190.195C351.57 189.129 353.246 186.973 354.172 184.406C355.062 186.785 356.645 188.789 358.93 189.82L360.594 187.57C357.195 185.965 355.625 182.543 355.625 179.508ZM361.742 194.156H364.742V183.609H367.883V181.102H364.742V172.828H361.742V194.156ZM385.578 172.828H382.578V188.25H385.578V181.102H388.461V178.641H385.578V172.828ZM369.477 184.734H371.281C376.004 184.734 378.465 184.605 381.148 184.055L380.844 181.664C378.465 182.168 376.344 182.297 372.477 182.32V176.93H379.109V174.539H369.477V184.734ZM371.75 193.781H386.352V191.391H374.727V186.609H371.75V193.781ZM402.102 181.5H393.875V177.094H401.984V174.727H390.898V183.891H394.953V187.488C393.043 187.535 391.191 187.535 389.492 187.523L389.844 189.961C393.852 189.961 398.703 189.926 403.367 189.211L403.133 187.031C401.469 187.207 399.711 187.324 397.953 187.395V183.891H402.102V181.5ZM404.352 194.203H407.328V172.828H404.352V194.203ZM418.18 186.445V185.578H415.273V186.445C415.262 188.566 414.078 190.734 411.266 191.672L412.719 193.875C414.652 193.16 415.965 191.871 416.727 190.277C417.43 191.941 418.684 193.336 420.641 194.062C422.574 193.289 423.828 191.836 424.531 190.195C425.27 191.848 426.582 193.172 428.609 193.875L430.133 191.672C427.227 190.781 426.066 188.672 426.055 186.445V185.578H423.125V186.445C423.102 188.027 422.387 189.902 420.629 191.191C418.883 189.984 418.168 188.191 418.18 186.445ZM410.398 179.016C410.398 182.016 412.836 184.16 416.094 184.148C418.812 184.16 421.016 182.566 421.578 180.211H425.141V184.781H428.117V172.828H425.141V177.773H421.566C420.98 175.477 418.789 173.906 416.094 173.93C412.836 173.906 410.398 176.074 410.398 179.016ZM413.281 179.016C413.258 177.387 414.453 176.402 416.094 176.414C417.688 176.402 418.871 177.387 418.883 179.016C418.871 180.645 417.688 181.676 416.094 181.664C414.453 181.676 413.258 180.645 413.281 179.016ZM436.109 185.625H433.156V193.922H447.875V185.625H444.898V187.43H436.109V185.625ZM430.883 184.547H450.336V182.133H430.883V184.547ZM431.844 178.852L432.922 181.195C436.555 180.727 439.227 179.203 440.609 177.141C441.98 179.203 444.652 180.727 448.32 181.195L449.375 178.852C444.605 178.312 442.156 175.898 442.156 173.766V173.039H439.086V173.766C439.062 175.957 436.602 178.277 431.844 178.852ZM436.109 191.578V189.703H444.898V191.578H436.109ZM469.555 172.828H466.578V194.156H469.555V172.828ZM452.773 188.883H454.648C457.941 188.895 461.48 188.66 465.219 187.875L464.844 185.414C461.703 186.023 458.609 186.293 455.727 186.34V174.867H452.773V188.883ZM489.195 172.828H486.195V194.203H489.195V183.188H492.336V180.75H489.195V172.828ZM473.211 189.023H475.016C478.777 189.035 481.684 188.953 485 188.391L484.672 185.883C481.836 186.375 479.281 186.539 476.188 186.562V177.211H483.219V174.797H473.211V189.023ZM495.875 192.211C496.918 192.211 497.82 191.332 497.82 190.242C497.82 189.164 496.918 188.285 495.875 188.297C494.773 188.285 493.883 189.164 493.906 190.242C493.883 191.332 494.773 192.211 495.875 192.211Z" fill="#2D3037"/>
<path d="M148.992 216.75H142.602V217.953H147.5C147.445 218.75 147.328 219.508 147.117 220.227L141.867 220.578L142.086 221.859L146.656 221.43C145.828 223.203 144.32 224.711 141.789 225.953L142.602 227.062C147.711 224.547 148.977 220.883 148.992 216.75ZM151.133 229.312H152.617V222.141H154.789V220.922H152.617V215.328H151.133V229.312ZM161.445 216.906H156.008V225.641H161.445V221.766H163.32V228.641H164.742V215.594H163.32V220.547H161.445V216.906ZM157.414 224.453V218.078H160.055V224.453H157.414ZM166.164 229.328H167.586V215.328H166.164V229.328ZM180.273 215.328H178.805V229.359H180.273V222.047H182.523V220.797H180.273V215.328ZM169.914 217.797H174.852V220.531H169.945V226.016H171.086C173.711 226 175.602 225.906 177.789 225.5L177.648 224.297C175.602 224.672 173.812 224.758 171.414 224.766V221.734H176.32V216.594H169.914V217.797ZM194.492 216.219H187.836V221.969H194.492V216.219ZM188.758 228.141L189.273 229.281C191.477 229.016 193.312 228.094 194.172 226.844C195.016 228.078 196.828 229.016 199.023 229.281L199.523 228.141C196.977 227.859 195.031 226.578 194.93 225.359H199.023V224.234H194.898V222.922H193.43V224.234H189.32V225.359H193.398C193.297 226.617 191.305 227.891 188.758 228.141ZM189.289 220.812V217.406H193.023V220.812H189.289ZM197.227 223.328H198.695V215.328H197.227V223.328ZM211.914 216.719H205.367V225.812H211.914V216.719ZM206.82 224.609V217.891H210.445V224.609H206.82ZM214.258 229.328H215.742V222.062H217.992V220.812H215.742V215.328H214.258V229.328ZM230.258 215.328H228.773V229.359H230.258V215.328ZM219.148 221.281C219.148 224.305 220.656 226.211 222.773 226.203C224.852 226.211 226.383 224.305 226.383 221.281C226.383 218.289 224.852 216.383 222.773 216.375C220.656 216.383 219.148 218.289 219.148 221.281ZM220.586 221.281C220.578 219.086 221.469 217.711 222.773 217.703C224.055 217.711 224.945 219.086 224.945 221.281C224.945 223.508 224.055 224.875 222.773 224.875C221.469 224.875 220.578 223.508 220.586 221.281ZM243.758 216.688H234.008V217.906H242.32V218.391C242.312 219.109 242.312 219.828 242.281 220.578L233.617 220.906L233.805 222.125L242.211 221.68C242.133 222.719 241.977 223.836 241.68 225.125L243.148 225.266C243.758 222.359 243.758 220.438 243.758 218.391V216.688ZM232.492 227.453H245.258V226.234H232.492V227.453Z" fill="#6D727C"/>
<path d="M262.906 215.234H260.891V222.797H258.109V224.359H260.891V225.938H262.906V215.234ZM250.656 220.609L250.906 222.188C251.969 222.188 253.18 222.172 254.453 222.109V224.844H252.625V229.188H263.234V227.594H254.625V225.047H256.422V221.992C257.617 221.898 258.828 221.758 260 221.547L259.875 220.141C259.422 220.203 258.961 220.258 258.5 220.297C258.781 218.5 258.781 217.188 258.781 216.453V215.922H251.953V217.5H256.781C256.75 218.25 256.688 219.234 256.508 220.453C254.422 220.578 252.344 220.594 250.656 220.609ZM275.859 215.234H273.859V225.844H275.859V221.219H277.781V219.594H275.859V215.234ZM264.578 218.297H273.016V216.719H269.797V215.203H267.812V216.719H264.578V218.297ZM265.266 221.547C265.266 223.188 266.727 224.266 268.797 224.266C270.859 224.266 272.297 223.188 272.297 221.547C272.297 219.898 270.859 218.797 268.797 218.797C266.727 218.797 265.266 219.898 265.266 221.547ZM266.641 229.188H276.375V227.594H268.625V225.031H266.641V229.188ZM267.219 221.547C267.211 220.758 267.844 220.32 268.797 220.312C269.758 220.32 270.406 220.758 270.406 221.547C270.406 222.328 269.758 222.75 268.797 222.75C267.844 222.75 267.211 222.328 267.219 221.547ZM284.891 215.422C281.609 215.422 279.703 216.281 279.703 217.844C279.703 219.43 281.609 220.281 284.891 220.281C288.164 220.281 290.055 219.43 290.062 217.844C290.055 216.281 288.164 215.422 284.891 215.422ZM278.406 222.531H291.375V220.953H278.406V222.531ZM279.906 224.812H287.828V225.594H279.922V229.344H290.172V227.844H281.875V226.984H289.797V223.359H279.906V224.812ZM281.797 217.844C281.789 217.211 282.805 216.875 284.891 216.875C286.992 216.875 288 217.211 288 217.844C288 218.539 286.992 218.812 284.891 218.812C282.805 218.812 281.789 218.539 281.797 217.844ZM304.312 217.344H301.109V215.438H299.125V217.344H295.953V218.938H304.312V217.344ZM296.688 223.125C296.688 225.062 298.156 226.508 300.125 226.516C302.086 226.508 303.531 225.062 303.547 223.125C303.531 221.164 302.086 219.727 300.125 219.734C298.156 219.727 296.688 221.164 296.688 223.125ZM298.547 223.125C298.539 222.07 299.219 221.414 300.125 221.406C301.031 221.414 301.711 222.07 301.703 223.125C301.711 224.195 301.031 224.828 300.125 224.812C299.219 224.828 298.539 224.195 298.547 223.125ZM304.016 222.453H305.953V229.438H307.922V215.219H305.953V220.844H304.016V222.453ZM322.719 221.953H319.734V220.266C320.797 219.812 321.398 219.102 321.406 218.172C321.398 216.453 319.375 215.43 316.234 215.422C313.07 215.43 311.047 216.453 311.047 218.172C311.047 219.086 311.633 219.789 312.672 220.25V221.953H309.75V223.547H322.719V221.953ZM311.234 226.844C311.234 228.523 313.102 229.422 316.219 229.422C319.289 229.422 321.156 228.523 321.172 226.844C321.156 225.203 319.289 224.289 316.219 224.297C313.102 224.289 311.234 225.203 311.234 226.844ZM313.125 218.172C313.109 217.375 314.227 216.953 316.234 216.953C318.219 216.953 319.344 217.375 319.344 218.172C319.344 218.953 318.219 219.352 316.234 219.344C314.227 219.352 313.109 218.953 313.125 218.172ZM313.266 226.844C313.258 226.141 314.25 225.805 316.219 225.797C318.148 225.805 319.164 226.141 319.172 226.844C319.164 227.57 318.148 227.938 316.219 227.938C314.25 227.938 313.258 227.57 313.266 226.844ZM314.688 221.953V220.758C315.164 220.812 315.68 220.844 316.234 220.844C316.773 220.844 317.281 220.82 317.75 220.758V221.953H314.688ZM339.562 216.688H334.734V215.203H332.75V216.688H327.891V218.297H339.562V216.688ZM327.266 226.031H332.75V229.453H334.734V226.031H340.281V224.406H327.266V226.031ZM328.844 221.281C328.836 222.852 330.672 223.711 333.75 223.719C336.805 223.711 338.648 222.852 338.656 221.281C338.648 219.703 336.805 218.844 333.75 218.844C330.672 218.844 328.836 219.703 328.844 221.281ZM330.906 221.281C330.906 220.633 331.844 220.32 333.75 220.312C335.633 220.32 336.578 220.633 336.578 221.281C336.578 221.93 335.633 222.234 333.75 222.234C331.844 222.234 330.906 221.93 330.906 221.281ZM349.406 218.75V216.438H347.469V218.891C347.461 221.297 346.648 223.836 344.516 225.109L345.766 226.562C347.047 225.797 347.906 224.484 348.414 222.914C348.883 224.32 349.672 225.469 350.906 226.141L352.078 224.562C350.07 223.5 349.398 221.188 349.406 218.75ZM352.094 228.781H353.969V222.359H355.203V229.438H357.109V215.219H355.203V220.766H353.969V215.422H352.094V228.781ZM371.625 226.219H366.078V224.078H370.453V222.453H362.109V220.859H370.125V216.141H360.094V217.734H368.156V219.297H360.109V224.078H364.094V226.219H358.609V227.859H371.625V226.219ZM384.156 216.453H373.781V218.031H382.156C382.148 219.703 382.125 221.703 381.578 224.391L383.578 224.594C384.148 221.578 384.148 219.578 384.156 217.797V216.453ZM372.438 227.703H385.406V226.078H379.062V221.188H377.078V226.078H372.438V227.703ZM394.703 216.641H391.812V215.172H389.781V216.641H386.875V218.203H389.781C389.734 219.773 388.656 221.32 386.406 221.984L387.328 223.516C389.023 223.039 390.188 222.016 390.828 220.711C391.492 221.898 392.648 222.82 394.297 223.25L395.219 221.688C392.938 221.117 391.844 219.656 391.797 218.203H394.703V216.641ZM388.641 229.281H398.172V224.156H388.641V229.281ZM390.609 227.688V225.75H396.219V227.688H390.609ZM396.172 223.562H398.172V215.234H396.172V223.562Z" fill="#567FE8"/>
<path d="M411.562 217.641H408.828V215.734H407.359V217.641H404.609V218.844H411.562V217.641ZM405.062 222.906C405.055 224.82 406.336 226.164 408.094 226.156C409.867 226.164 411.133 224.82 411.141 222.906C411.133 221.023 409.867 219.688 408.094 219.688C406.336 219.688 405.055 221.023 405.062 222.906ZM406.375 222.906C406.367 221.742 407.086 220.93 408.094 220.922C409.102 220.93 409.828 221.742 409.828 222.906C409.828 224.094 409.102 224.891 408.094 224.891C407.086 224.891 406.367 224.094 406.375 222.906ZM412.203 228.672H413.609V222.375H415.219V229.328H416.625V215.328H415.219V221.156H413.609V215.641H412.203V228.672ZM431.234 223.219H418.469V224.422H424.094V229.312H425.547V224.422H431.234V223.219ZM419.188 220.984L419.75 222.156C422.016 221.797 423.992 220.664 424.852 219.07C425.703 220.664 427.688 221.797 429.984 222.156L430.531 220.984C427.883 220.625 425.727 219.07 425.703 217.344H430.031V216.156H419.656V217.344H424.016C423.969 219.07 421.797 220.625 419.188 220.984ZM437.438 218.891V216.5H435.938V218.891C435.938 221.562 434.391 224.242 432.188 225.219L433.094 226.469C434.773 225.648 436.062 223.961 436.711 221.906C437.367 223.82 438.641 225.391 440.25 226.156L441.141 224.984C438.969 224.023 437.422 221.445 437.438 218.891ZM442.406 229.359H443.891V215.328H442.406V229.359ZM457.734 215.328H456.25V222.453H457.734V215.328ZM446.344 221.531L446.891 222.734C451.125 221.805 453.523 219.625 453.531 215.953H447.078V217.172H451.898C451.672 219.227 449.844 220.797 446.344 221.531ZM448.531 224.25H456.25V225.484H448.578V229.188H458.203V228.016H450.047V226.594H457.734V223.078H448.531V224.25ZM474.766 215.328H473.281V229.328H474.766V222H477.016V220.75H474.766V215.328ZM464.391 226H471.031V216.5H469.562V220.094H465.859V216.5H464.391V226ZM465.859 224.781V221.266H469.562V224.781H465.859ZM488.688 215.344H487.203V223.062H488.688V219.859H490.734V218.609H488.688V215.344ZM478.25 217.219H483.172V218.734H478.266V222.781H479.391C482.078 222.773 483.93 222.688 486.094 222.312L485.938 221.094C483.898 221.469 482.18 221.539 479.75 221.562V219.875H484.625V216H478.25V217.219ZM479.734 229.156H488.688V223.656H487.203V225.234H481.203V223.656H479.734V229.156ZM481.203 227.953V226.406H487.203V227.953H481.203ZM503.141 215.328H501.656V229.328H503.141V215.328ZM492.375 225.766H493.547C495.758 225.773 498.008 225.602 500.484 225.094L500.281 223.844C498.039 224.297 495.891 224.477 493.844 224.484V216.688H492.375V225.766ZM516.25 215.328H514.766V229.359H516.25V221.969H518.5V220.75H516.25V215.328ZM505.938 225.875H507.062C509.664 225.883 511.523 225.812 513.719 225.422L513.531 224.172C511.531 224.531 509.773 224.633 507.422 224.641V217.875H512.484V216.672H505.938V225.875ZM520.766 228.109C521.367 228.102 521.867 227.609 521.875 227C521.867 226.391 521.367 225.891 520.766 225.891C520.156 225.891 519.648 226.391 519.656 227C519.648 227.609 520.156 228.102 520.766 228.109Z" fill="#6D727C"/>
<rect x="32.5" y="24.5" width="599" height="247" rx="11.5" stroke="#E6E9F1"/>
</g>
<defs>
<filter id="filter0_dd_404_4627" x="0" y="0" width="664" height="312" filterUnits="userSpaceOnUse" color-interpolation-filters="sRGB">
<feFlood flood-opacity="0" result="BackgroundImageFix"/>
<feColorMatrix in="SourceAlpha" type="matrix" values="0 0 0 0 0 0 0 0 0 0 0 0 0 0 0 0 0 0 127 0" result="hardAlpha"/>
<feOffset dy="8"/>
<feGaussianBlur stdDeviation="16"/>
<feComposite in2="hardAlpha" operator="out"/>
<feColorMatrix type="matrix" values="0 0 0 0 0 0 0 0 0 0 0 0 0 0 0 0 0 0 0.04 0"/>
<feBlend mode="normal" in2="BackgroundImageFix" result="effect1_dropShadow_404_4627"/>
<feColorMatrix in="SourceAlpha" type="matrix" values="0 0 0 0 0 0 0 0 0 0 0 0 0 0 0 0 0 0 127 0" result="hardAlpha"/>
<feOffset dy="4"/>
<feGaussianBlur stdDeviation="6"/>
<feComposite in2="hardAlpha" operator="out"/>
<feColorMatrix type="matrix" values="0 0 0 0 0 0 0 0 0 0 0 0 0 0 0 0 0 0 0.02 0"/>
<feBlend mode="normal" in2="effect1_dropShadow_404_4627" result="effect2_dropShadow_404_4627"/>
<feBlend mode="normal" in="SourceGraphic" in2="effect2_dropShadow_404_4627" result="shape"/>
</filter>
<filter id="filter1_dd_404_4627" x="470" y="46" width="108" height="108" filterUnits="userSpaceOnUse" color-interpolation-filters="sRGB">
<feFlood flood-opacity="0" result="BackgroundImageFix"/>
<feColorMatrix in="SourceAlpha" type="matrix" values="0 0 0 0 0 0 0 0 0 0 0 0 0 0 0 0 0 0 127 0" result="hardAlpha"/>
<feOffset dy="6"/>
<feGaussianBlur stdDeviation="10"/>
<feComposite in2="hardAlpha" operator="out"/>
<feColorMatrix type="matrix" values="0 0 0 0 0 0 0 0 0 0 0 0 0 0 0 0 0 0 0.04 0"/>
<feBlend mode="normal" in2="BackgroundImageFix" result="effect1_dropShadow_404_4627"/>
<feColorMatrix in="SourceAlpha" type="matrix" values="0 0 0 0 0 0 0 0 0 0 0 0 0 0 0 0 0 0 127 0" result="hardAlpha"/>
<feOffset dy="2"/>
<feGaussianBlur stdDeviation="4"/>
<feComposite in2="hardAlpha" operator="out"/>
<feColorMatrix type="matrix" values="0 0 0 0 0 0 0 0 0 0 0 0 0 0 0 0 0 0 0.06 0"/>
<feBlend mode="normal" in2="effect1_dropShadow_404_4627" result="effect2_dropShadow_404_4627"/>
<feBlend mode="normal" in="SourceGraphic" in2="effect2_dropShadow_404_4627" result="shape"/>
</filter>
</defs>
</svg>
